<svg width="13" height="13" viewBox="0 0 13 13" fill="none" xmlns="http://www.w3.org/2000/svg">
<path d="M3.344 12.704C3.344 12.5653 3.31733 12.496 3.264 12.496L2.896 12.672C2.896 12.5973 2.85333 12.544 2.768 12.512L2.64 12.496C2.55467 12.496 2.448 12.5333 2.32 12.608C2.29867 12.5547 2.272 12.5013 2.24 12.448C2.208 12.3947 2.18133 12.3467 2.16 12.304C2.02133 12.0373 1.88267 11.744 1.744 11.424C1.616 11.0933 1.49333 10.7787 1.376 10.48C1.26933 10.1813 1.184 9.94667 1.12 9.776C1.07733 9.63733 1.02933 9.42933 0.976 9.152C0.922667 8.87467 0.869333 8.52267 0.816 8.096C0.933333 8.17067 1.024 8.208 1.088 8.208C1.16267 8.208 1.232 8.096 1.296 7.872C1.328 7.91467 1.38667 7.936 1.472 7.936C1.536 7.936 1.584 7.91467 1.616 7.872L1.872 7.488L2.16 7.584H2.176C2.19733 7.584 2.21867 7.57333 2.24 7.552C2.26133 7.53067 2.29333 7.50933 2.336 7.488C2.42133 7.43467 2.48533 7.408 2.528 7.408L2.576 7.424C2.84267 7.552 3.01333 7.78667 3.088 8.128C3.28 8.93867 3.472 9.344 3.664 9.344C3.856 9.344 4.08 9.14133 4.336 8.736C4.464 8.53333 4.592 8.29867 4.72 8.032C4.85867 7.76533 4.99733 7.46667 5.136 7.136C5.15733 7.264 5.17867 7.328 5.2 7.328C5.25333 7.328 5.344 7.19467 5.472 6.928C5.61067 6.66133 5.82933 6.29333 6.128 5.824C6.29867 5.536 6.512 5.21067 6.768 4.848C7.03467 4.48533 7.31733 4.112 7.616 3.728C7.91467 3.344 8.20267 2.98133 8.48 2.64C8.768 2.29867 9.024 2.00533 9.248 1.76C9.472 1.51467 9.63733 1.35467 9.744 1.28C10.1493 1.00267 10.4693 0.735999 10.704 0.48C10.6933 0.554666 10.6773 0.623999 10.656 0.688C10.6453 0.741333 10.64 0.778666 10.64 0.799999C10.64 0.842666 10.6613 0.863999 10.704 0.863999L11.152 0.639999V0.704C11.152 0.789333 11.1733 0.832 11.216 0.832C11.248 0.832 11.312 0.784 11.408 0.688C11.504 0.592 11.5573 0.522666 11.568 0.48L11.536 0.704L12.08 0.384L11.952 0.672C12.1227 0.554666 12.2453 0.495999 12.32 0.495999C12.3627 0.495999 12.3947 0.522666 12.416 0.575999C12.4373 0.618666 12.448 0.661333 12.448 0.704C12.448 0.767999 12.4213 0.842666 12.368 0.927999C12.3147 1.01333 12.2453 1.11467 12.16 1.232C12.096 1.31733 11.9893 1.44533 11.84 1.616C11.7013 1.776 11.488 2.016 11.2 2.336C10.912 2.64533 10.528 3.07733 10.048 3.632C9.92 3.77067 9.72267 4.016 9.456 4.368C9.18933 4.70933 8.88533 5.10933 8.544 5.568C8.21333 6.016 7.88267 6.46933 7.552 6.928C7.22133 7.38667 6.928 7.80267 6.672 8.176C6.416 8.53867 6.23467 8.81067 6.128 8.992L5.136 10.672C4.92267 11.0347 4.74667 11.3333 4.608 11.568C4.46933 11.792 4.36267 11.9467 4.288 12.032C4.128 12.224 3.952 12.3947 3.76 12.544L3.616 12.464L3.488 12.544L3.344 12.704Z" fill="#00E599"/>
</svg>
