<svg width="13" height="13" fill="none" xmlns="http://www.w3.org/2000/svg"><path d="M3.344 12.704c0-.139-.027-.208-.08-.208l-.368.176c0-.075-.043-.128-.128-.16l-.128-.016a.676.676 0 00-.32.112 1.119 1.119 0 00-.08-.16 2.156 2.156 0 01-.08-.144 13.85 13.85 0 01-.416-.88c-.128-.33-.25-.645-.368-.944a50.28 50.28 0 00-.256-.704 6.408 6.408 0 01-.144-.624c-.053-.277-.107-.63-.16-1.056.117.075.208.112.272.112.075 0 .144-.112.208-.336.032.043.09.064.176.064.064 0 .112-.021.144-.064l.256-.384.288.096h.016c.021 0 .043-.01.064-.032a.372.372 0 01.096-.064c.085-.053.15-.08.192-.08l.048.016c.267.128.437.363.512.704.192.81.384 1.216.576 1.216.192 0 .416-.203.672-.608.128-.203.256-.437.384-.704.139-.267.277-.565.416-.896.021.128.043.192.064.192.053 0 .144-.133.272-.4.139-.267.357-.635.656-1.104.17-.288.384-.613.64-.976A65.453 65.453 0 018.48 2.64c.288-.341.544-.635.768-.88.224-.245.39-.405.496-.48.405-.277.725-.544.96-.8-.01.075-.027.144-.048.208A.67.67 0 0010.64.8c0 .043.021.064.064.064l.448-.224v.064c0 .085.021.128.064.128.032 0 .096-.048.192-.144.096-.096.15-.165.16-.208l-.032.224.544-.32-.128.288c.17-.117.293-.176.368-.176.043 0 .075.027.096.08a.284.284 0 01.032.128.44.44 0 01-.08.224 5.38 5.38 0 01-.208.304c-.064.085-.17.213-.32.384-.139.16-.352.4-.64.72-.288.31-.672.741-1.152 1.296a11.13 11.13 0 00-.592.736c-.267.341-.57.741-.912 1.2-.33.448-.661.901-.992 1.36-.33.459-.624.875-.88 1.248-.256.363-.437.635-.544.816l-.992 1.68-.528.896a3.906 3.906 0 01-.32.464c-.16.192-.336.363-.528.512l-.144-.08-.128.08-.144.16z" fill="#11B973"/></svg>
