<svg xmlns="http://www.w3.org/2000/svg" xmlns:xlink="http://www.w3.org/1999/xlink" viewBox="0 0 122 170"><defs><linearGradient id="linear-gradient" x1="-514.5" y1="738.47" x2="-514.5" y2="768.47" gradientTransform="matrix(1 0 0 -1 558 842.47)" gradientUnits="userSpaceOnUse"><stop offset=".39" stop-color="#d1d3d4" stop-opacity="0"/><stop offset="1" stop-color="#d1d3d4"/></linearGradient><linearGradient id="linear-gradient-2" x1="-532" y1="725.97" x2="-462" y2="725.97" gradientTransform="matrix(1 0 0 -1 558 842.47)" gradientUnits="userSpaceOnUse"><stop offset="0" stop-color="#e8e7e5"/><stop offset="1" stop-color="#fff"/></linearGradient><linearGradient id="linear-gradient-3" x1="-536" y1="776.97" x2="-459" y2="776.97" xlink:href="#linear-gradient-2"/><style>.cls-1{fill:#2062af}.cls-2{fill:#3c9cd7}.cls-3{fill:#111}.cls-4{fill:#fff}.cls-5{fill:url(#linear-gradient)}.cls-6{fill:url(#linear-gradient-2)}.cls-7{opacity:.05;isolation:isolate}.cls-8{fill:url(#linear-gradient-3)}</style></defs><g id="Layer_2" data-name="Layer 2"><g id="Layer_1-2" data-name="Layer 1"><path class="cls-1" d="M110.56 156.68L61 170l-49.56-13.32L0 33h122z"/><path class="cls-2" d="M61 43v117h.11l40.53-10.84L111 43z"/><path class="cls-3" d="M33 14.9V7.78h10.7V0H25v22h18.73v-7.1zm30-7.12h7.48V0H51.73v7.78c2.5 2.43 3.81 3.6 7.43 7.11h-7.43V22h18.73v-7.1zm26.54 0H97V0H78.27v7.78c2.51 2.43 3.81 3.6 7.44 7.11h-7.44V22H97v-7.1l-7.48-7.12z"/><path class="cls-4" d="M61.25 74.1L26 89.12 27.17 104l34.08-14.92L97.5 73.22 99 58z"/><path class="cls-5" d="M26 89.07L27.16 104 61 89V74L26 89.07z"/><path class="cls-6" d="M26 89l1.17 14.5 52.16.17L78.17 123 61 127.83l-16.5-4.16-1-12H28.17l2 23.16 31 9.17L92 135l4-46z"/><path class="cls-7" d="M61 89H26l1.16 14.5 33.84.11zm0 38.79h-.17l-16.42-4.16-1-12H28.16l2 23.16L61 144z"/><path class="cls-8" d="M22 58h77l-1.52 15H23.86L22 58z"/><path class="cls-7" d="M61 58H22l1.86 15H61V58z"/><path class="cls-1" d="M110.56 156.68L61 170l-49.56-13.32L0 33h122z"/><path class="cls-2" d="M61 43v117h.11l40.53-10.84L111 43z"/><path class="cls-3" d="M33 14.9V7.78h10.7V0H25v22h18.73v-7.1zm30-7.12h7.48V0H51.73v7.78c2.5 2.43 3.81 3.6 7.43 7.11h-7.43V22h18.73v-7.1zm26.54 0H97V0H78.27v7.78c2.51 2.43 3.81 3.6 7.44 7.11h-7.44V22H97v-7.1l-7.48-7.12z"/><path class="cls-4" d="M61.25 74.1L26 89.12 27.17 104l34.08-14.92L97.5 73.22 99 58z"/><path class="cls-5" d="M26 89.07L27.16 104 61 89V74L26 89.07z"/><path class="cls-6" d="M26 89l1.17 14.5 52.16.17L78.17 123 61 127.83l-16.5-4.16-1-12H28.17l2 23.16 31 9.17L92 135l4-46z"/><path class="cls-7" d="M61 89H26l1.16 14.5 33.84.11zm0 38.79h-.17l-16.42-4.16-1-12H28.16l2 23.16L61 144z"/><path class="cls-8" d="M22 58h77l-1.52 15H23.86L22 58z"/><path class="cls-7" d="M61 58H22l1.86 15H61V58z"/><path class="cls-1" d="M110.56 156.68L61 170l-49.56-13.32L0 33h122z"/><path class="cls-2" d="M61 43v117h.11l40.53-10.84L111 43z"/><path class="cls-3" d="M33 14.9V7.78h10.7V0H25v22h18.73v-7.1zm30-7.12h7.48V0H51.73v7.78c2.5 2.43 3.81 3.6 7.43 7.11h-7.43V22h18.73v-7.1zm26.54 0H97V0H78.27v7.78c2.51 2.43 3.81 3.6 7.44 7.11h-7.44V22H97v-7.1l-7.48-7.12z"/><path class="cls-4" d="M61.25 74.1L26 89.12 27.17 104l34.08-14.92L97.5 73.22 99 58z"/><path class="cls-5" d="M26 89.07L27.16 104 61 89V74L26 89.07z"/><path class="cls-6" d="M26 89l1.17 14.5 52.16.17L78.17 123 61 127.83l-16.5-4.16-1-12H28.17l2 23.16 31 9.17L92 135l4-46z"/><path class="cls-7" d="M61 89H26l1.16 14.5 33.84.11zm0 38.79h-.17l-16.42-4.16-1-12H28.16l2 23.16L61 144z"/><path class="cls-8" d="M22 58h77l-1.52 15H23.86L22 58z"/><path class="cls-7" d="M61 58H22l1.86 15H61V58z"/></g></g></svg>
