<svg xmlns="http://www.w3.org/2000/svg" viewBox="0 0 97.53 146.29"><g data-name="Layer 2"><g data-name="Layer 1"><path d="M24.38 146.29a24.39 24.39 0 0024.38-24.38V97.53H24.38a24.38 24.38 0 000 48.76z" fill="#0acf83"/><path d="M0 73.15a24.39 24.39 0 0124.38-24.39h24.38v48.77H24.38A24.39 24.39 0 010 73.15z" fill="#a259ff"/><path d="M0 24.38A24.39 24.39 0 0124.38 0h24.38v48.76H24.38A24.39 24.39 0 010 24.38z" fill="#f24e1e"/><path d="M48.76 0h24.39a24.38 24.38 0 010 48.76H48.76z" fill="#ff7262"/><path d="M97.53 73.15a24.39 24.39 0 11-24.38-24.39 24.39 24.39 0 0124.38 24.39z" fill="#1abcfe"/></g></g></svg>
