<svg xmlns="http://www.w3.org/2000/svg" xmlns:xlink="http://www.w3.org/1999/xlink" viewBox="0 0 141 145.53"><defs><style>.cls-1{fill:#09204d;}.cls-2{fill:#0e56d7;}.cls-3{fill:#1053d1;}.cls-4{fill:#0b4fbf;}.cls-5{fill:#0b48b0;}.cls-6{fill:#0c45a7;}.cls-7{fill:#0f46af;}.cls-8{fill:#0c47ad;}.cls-9{fill:#0e4fc3;}.cls-10{fill:#174dca;}.cls-11{fill:#1650d4;}.cls-12{fill:#1246b2;}.cls-13{fill:#133ea1;}.cls-14{fill:#103d98;}.cls-15{fill:#0b3785;}.cls-16{fill:#0b3685;}.cls-17{fill:#0c3b91;}.cls-18{fill:#0b3279;}.cls-19{fill:#0f388d;}.cls-20{fill:#0d3481;}.cls-21{fill:#0b2e71;}.cls-22{fill:#0e2f77;}.cls-23{fill:#0e2969;}.cls-24{fill:#0c2a69;}.cls-25{fill:#123180;}.cls-26{fill:#112b70;}.cls-27{fill:#12378c;}.cls-28{fill:#122e7b;}.cls-29{fill:#11296c;}.cls-30{fill:#142a72;}.cls-31{fill:#112768;}.cls-32{fill:#1c226a;}.cls-33{fill:#182b7a;}.cls-34{fill:#1f308d;}.cls-35{fill:#1e2b7f;}.cls-36{fill:#1346b5;}.cls-37{fill:#1244ac;}.cls-38{fill:#0e4ab6;}.cls-39{fill:#0e4bba;}.cls-40{fill:#0a4ebc;}.cls-41{fill:#0c54cc;}.cls-42{fill:#0b4bb4;}.cls-43{fill:#0c3889;}.cls-44{fill:#202575;}.cls-45{fill:#1b2773;}.cls-46{fill:#15276d;}.cls-47{fill:#0c409d;}.cls-48{fill:#0b4cb7;}.cls-49{fill:#0b55ce;}.cls-50{fill:#0a52c5;}.cls-51{fill:#0951c4;}.cls-52{fill:#0b50c4;}.cls-53{fill:#0f4dbf;}.cls-54{fill:#1546b6;}.cls-55{fill:#1549bd;}.cls-56{fill:#144bc3;}.cls-57{fill:#173794;}.cls-58{fill:#192f84;}.cls-59{fill:#1a389b;}.cls-60{fill:#1d3089;}.cls-61{fill:#1e389f;}.cls-62{fill:#1c40af;}.cls-63{fill:#1e41b7;}.cls-64{fill:#192c7d;}.cls-65{fill:#162467;}.cls-66{fill:#1a236a;}.cls-67{fill:#132668;}.cls-68{fill:#1b2268;}.cls-69{fill:#212a81;}.cls-70{fill:#21267a;}.cls-71{fill:#262781;}.cls-72{fill:#272379;}.cls-73{fill:#1e226d;}.cls-74{fill:#222475;}.cls-75{fill:#23277d;}.cls-76{fill:#1e2776;}.cls-77{fill:#222b86;}.cls-78{fill:#192974;}.cls-79{fill:#172a75;}.cls-80{fill:#172d7d;}.cls-81{fill:#18338a;}.cls-82{fill:#153791;}.cls-83{fill:#1b318b;}.cls-84{fill:#242d8d;}.cls-85{fill:#2a2b8f;}.cls-86{fill:#27267f;}.cls-87{fill:#2d2381;}.cls-88{fill:#2f2485;}.cls-89{fill:#233196;}.cls-90{fill:#293cb7;}.cls-91{fill:#25339c;}.cls-92{fill:#19348f;}.cls-93{fill:#2a309a;}.cls-94{fill:#302b96;}.cls-95{fill:#3630a7;}.cls-96{fill:#173da2;}.cls-97{fill:#2a36a8;}.cls-98{fill:#312e9f;}.cls-99{fill:#184dcd;}.cls-100{fill:#272986;}.cls-101{fill:#2c2584;}.cls-102{fill:#32268b;}.cls-103{fill:#372999;}.cls-104{fill:#392da5;}.cls-105{fill:#3338bc;}.cls-106{fill:#362896;}.cls-107{fill:#35268f;}.cls-108{fill:#2648d3;}.cls-109{fill:#1057dc;}.cls-110{fill:#1653da;}.cls-111{fill:#2b46d5;}.cls-112{fill:#244ad7;}.cls-113{fill:#2547cf;}.cls-114{fill:#333cc5;}.cls-115{fill:#3833b6;}.cls-116{fill:#2a41c6;}.cls-117{fill:#2045c1;}.cls-118{fill:#1b43b7;}.cls-119{fill:#1742af;}.cls-120{fill:#1740a9;}.cls-121{fill:#1b3ca4;}.cls-122{fill:#1f3dad;}.cls-123{fill:#2543c3;}.cls-124{fill:#2e37b2;}.cls-125{fill:#2d40c7;}.cls-126{fill:#3537b8;}.cls-127{fill:#3931b0;}.cls-128{fill:#3735b8;}.cls-129{fill:#342892;}.cls-130{fill:#232372;}.cls-131{fill:#2a2f96;}.cls-132{fill:#2636a5;}.cls-133{fill:url(#radial-gradient);}.cls-134{fill:url(#radial-gradient-2);}.cls-135{fill:url(#radial-gradient-3);}.cls-136{fill:url(#radial-gradient-4);}.cls-137{fill:url(#radial-gradient-5);}.cls-138{fill:url(#linear-gradient);}.cls-139{fill:url(#linear-gradient-2);}.cls-140{fill:url(#radial-gradient-6);}.cls-141{fill:url(#radial-gradient-7);}.cls-142{fill:url(#radial-gradient-8);}.cls-143{fill:url(#linear-gradient-3);}.cls-144{fill:url(#linear-gradient-4);}.cls-145{fill:url(#linear-gradient-5);}.cls-146{fill:url(#linear-gradient-6);}.cls-147{fill:url(#linear-gradient-7);}.cls-148{fill:url(#linear-gradient-8);}.cls-149{fill:url(#linear-gradient-9);}.cls-150{fill:url(#linear-gradient-10);}.cls-151{fill:url(#linear-gradient-11);}.cls-152{fill:url(#linear-gradient-12);}</style><radialGradient id="radial-gradient" cx="-969.08" cy="1146.89" r="0.05" gradientTransform="matrix(804.32, 0, 0, -803.89, 779525, 922032.52)" gradientUnits="userSpaceOnUse"><stop offset="0.1" stop-color="#0df" stop-opacity="0.4"/><stop offset="0.9" stop-color="#7542e5" stop-opacity="0.25"/></radialGradient><radialGradient id="radial-gradient-2" cx="-969.09" cy="1146.87" r="0.04" gradientTransform="matrix(804.32, 0, 0, -803.89, 779525, 922032.52)" gradientUnits="userSpaceOnUse"><stop offset="0.91" stop-color="#7542e5" stop-opacity="0"/><stop offset="1" stop-color="#0df" stop-opacity="0.4"/></radialGradient><radialGradient id="radial-gradient-3" cx="-969.19" cy="1146.89" r="0.11" gradientTransform="matrix(1341.36, 0, 0, -1340.42, 1300153.5, 1537331.77)" gradientUnits="userSpaceOnUse"><stop offset="0" stop-color="#80ebff"/><stop offset="0.26" stop-color="#0df"/><stop offset="0.53" stop-color="#0090ed"/><stop offset="0.86" stop-color="#0060df"/></radialGradient><radialGradient id="radial-gradient-4" cx="-969.14" cy="1146.85" r="0.11" gradientTransform="matrix(1341.36, 0, 0, -1340.42, 1300037.95, 1537331.77)" gradientUnits="userSpaceOnUse"><stop offset="0.3" stop-color="#321c64" stop-opacity="0.8"/><stop offset="0.37" stop-color="#212f83" stop-opacity="0.5"/><stop offset="0.48" stop-color="#0a47ac" stop-opacity="0.14"/><stop offset="0.53" stop-color="#0250bb" stop-opacity="0"/></radialGradient><radialGradient id="radial-gradient-5" cx="-969.12" cy="1146.86" r="0.18" gradientTransform="matrix(1297.62, 0, 0, -1297.79, 1257669.62, 1488350.23)" gradientUnits="userSpaceOnUse"><stop offset="0" stop-color="#80ebff"/><stop offset="0.47" stop-color="#00b3f4"/><stop offset="0.84" stop-color="#0060df"/><stop offset="1" stop-color="#592acb"/></radialGradient><linearGradient id="linear-gradient" x1="-969.74" y1="1146.57" x2="-969.73" y2="1146.46" gradientTransform="matrix(529.04, 0, 0, -1116.04, 513136.22, 1279605.62)" gradientUnits="userSpaceOnUse"><stop offset="0" stop-color="#aaf2ff"/><stop offset="0.29" stop-color="#0df"/><stop offset="0.61" stop-color="#0090ed"/><stop offset="0.89" stop-color="#0250bb"/></linearGradient><linearGradient id="linear-gradient-2" x1="-969.34" y1="1146.27" x2="-969.31" y2="1146.16" gradientTransform="matrix(396.13, 0, 0, -671.98, 384064.42, 770274.85)" gradientUnits="userSpaceOnUse"><stop offset="0" stop-color="#aaf2ff"/><stop offset="0.29" stop-color="#0df"/><stop offset="0.74" stop-color="#0090ed"/><stop offset="1" stop-color="#0250bb"/></linearGradient><radialGradient id="radial-gradient-6" cx="-966.78" cy="1146.14" r="0.26" gradientTransform="matrix(201.23, 0, 0, -201.21, 194609.35, 230621.17)" gradientUnits="userSpaceOnUse"><stop offset="0" stop-color="#0df"/><stop offset="0.82" stop-color="#0090ed"/></radialGradient><radialGradient id="radial-gradient-7" cx="-968.53" cy="1147.27" r="0.27" gradientTransform="matrix(548.78, 0, 0, -549.31, 531611.69, 630239.69)" gradientUnits="userSpaceOnUse"><stop offset="0.29" stop-color="#80ebff"/><stop offset="1" stop-color="#00b3f4"/></radialGradient><radialGradient id="radial-gradient-8" cx="-969.3" cy="1147.15" r="0.2" gradientTransform="matrix(658.5, 0, 0, -657.73, 638346.36, 754546.45)" gradientUnits="userSpaceOnUse"><stop offset="0.18" stop-color="#aaf2ff"/><stop offset="0.43" stop-color="#0df"/><stop offset="0.69" stop-color="#0060df"/></radialGradient><linearGradient id="linear-gradient-3" x1="-969.13" y1="1146.7" x2="-969.19" y2="1146.64" gradientTransform="matrix(1650.72, 0, 0, -1703.57, 1599883.05, 1953502.11)" gradientUnits="userSpaceOnUse"><stop offset="0.24" stop-color="#80ebff" stop-opacity="0.5"/><stop offset="0.7" stop-color="#0df" stop-opacity="0"/></linearGradient><linearGradient id="linear-gradient-4" x1="-968.45" y1="1147.48" x2="-968.49" y2="1147.34" gradientTransform="matrix(379.18, 0, 0, -357.2, 367275.87, 409941.18)" gradientUnits="userSpaceOnUse"><stop offset="0" stop-color="#bff3ff" stop-opacity="0.9"/><stop offset="1" stop-color="#80ebff" stop-opacity="0.5"/></linearGradient><linearGradient id="linear-gradient-5" x1="-969.73" y1="1146.64" x2="-969.74" y2="1146.52" gradientTransform="matrix(565.86, 0, 0, -1369.85, 548846.34, 1570724.73)" gradientUnits="userSpaceOnUse"><stop offset="0" stop-color="#bff3ff"/><stop offset="1" stop-color="#0df" stop-opacity="0"/></linearGradient><linearGradient id="linear-gradient-6" x1="-969.18" y1="1145.84" x2="-969.18" y2="1145.72" gradientTransform="matrix(280.56, 0, 0, -421.92, 271991.25, 483454.86)" gradientUnits="userSpaceOnUse"><stop offset="0" stop-color="#bff3ff"/><stop offset="1" stop-color="#aaf2ff" stop-opacity="0.5"/></linearGradient><linearGradient id="linear-gradient-7" x1="-969.42" y1="1147.12" x2="-969.43" y2="1146.99" gradientTransform="matrix(511.45, 0, 0, -643.74, 495904.15, 738500.13)" xlink:href="#linear-gradient-5"/><linearGradient id="linear-gradient-8" x1="-968.57" y1="1147.24" x2="-968.56" y2="1147.13" gradientTransform="matrix(604.58, 0, 0, -535.52, 585619.28, 614428.45)" gradientUnits="userSpaceOnUse"><stop offset="0" stop-color="#bff3ff" stop-opacity="0.8"/><stop offset="1" stop-color="#80ebff" stop-opacity="0.2"/></linearGradient><linearGradient id="linear-gradient-9" x1="-966.79" y1="1146.08" x2="-966.87" y2="1145.95" gradientTransform="matrix(193.65, 0, 0, -201.72, 187265.12, 231209.44)" xlink:href="#linear-gradient-8"/><linearGradient id="linear-gradient-10" x1="-968.11" y1="1147.27" x2="-968.11" y2="1147.15" gradientTransform="matrix(554.56, 0, 0, -866.5, 536894.51, 994181)" gradientUnits="userSpaceOnUse"><stop offset="0" stop-color="#0df" stop-opacity="0.4"/><stop offset="1" stop-color="#0df" stop-opacity="0"/></linearGradient><linearGradient id="linear-gradient-11" x1="-968.61" y1="1146.82" x2="-968.61" y2="1146.73" gradientTransform="matrix(805.33, 0, 0, -1274.86, 780081.49, 1462049.16)" xlink:href="#linear-gradient-5"/><linearGradient id="linear-gradient-12" x1="-969.44" y1="1146.88" x2="-969.44" y2="1146.76" gradientTransform="matrix(956.07, 0, 0, -1341.27, 926948.12, 1538313.73)" gradientUnits="userSpaceOnUse"><stop offset="0" stop-color="#bff3ff" stop-opacity="0.8"/><stop offset="1" stop-color="#0df" stop-opacity="0"/></linearGradient></defs><g id="Layer_2" data-name="Layer 2"><g id="Layer_1-2" data-name="Layer 1"><path class="cls-1" d="M38.4,84.81l4.44,12.32,6.67,9,15.67,3,7.5.63,12.8-3.19L91,101.28Z"/><path class="cls-1" d="M104.72,66.65l-1.57-5.21L98.66,53l-5.13-5.41-5.45-3.9-4.73-1.85-5.68-2-9.34-.6-5.89,1.07-4.81,1.48-8.53,5-5.33,5.95-4.92,8-1.94,6.79-.36,10.31,1.85,7,4.06,8,2.87,3.86,4,3.64,5,3.35,6.11,2.66,10.22,1.2,5.34.15,7.9-2.23,7.06-3.87,4.54-3.88L99,93.5l5-9.75,1.1-6.67Z"/><path class="cls-2" d="M68.5,43.89,64.32,48l6.82,2.77,5.08-6.3Z"/><path class="cls-3" d="M71.14,50.81l13.22-.4-8.14-5.9Z"/><path class="cls-4" d="M83.38,44.47l-7.16,0,8.14,5.9,7.53-.49Z"/><path class="cls-5" d="M91.89,49.92,87.61,44l5.92,3.55Z"/><path class="cls-6" d="M97.55,53.53l-5.66-3.61,1.64-2.35Z"/><path class="cls-7" d="M91.89,49.92l-1,4L96.12,56Z"/><path class="cls-8" d="M91.89,49.92l5.66,3.61L96.12,56Z"/><path class="cls-9" d="M84.36,50.41l7.53-.49-1,4Z"/><path class="cls-10" d="M84.36,50.41l-6,5.38,7.66,3.75Z"/><path class="cls-11" d="M71.14,50.81l13.22-.4-6,5.38Z"/><path class="cls-12" d="M90.94,54l3.6,7L96.12,56Z"/><path class="cls-13" d="M94.54,60.94,96.12,56l3.77,9Z"/><path class="cls-14" d="M96.12,56l5.75,4.21-2,4.76Z"/><path class="cls-15" d="M97.55,53.53,98.66,53l3.21,7.26Z"/><path class="cls-16" d="M101.87,60.24l1.28,1.2L98.66,53Z"/><path class="cls-17" d="M101.87,60.24l-4.32-6.71L96.12,56ZM93.53,47.57l4,6L98.66,53Z"/><path class="cls-18" d="M104.43,70.71l-1.28-9.27,1.57,5.21-.31,4.06Z"/><path class="cls-19" d="M101.87,60.24l2.56,10.47-1.28-9.27Z"/><path class="cls-20" d="M99.89,65l4.54,5.71-2.56-10.47Z"/><path class="cls-21" d="M104.41,70.71l.31-4.06L105,77.08l-.6-6.37Z"/><path class="cls-22" d="M103.67,79,105,77.08l-.6-6.37Z"/><path class="cls-23" d="M103.93,83.75l-1.09.52L105,77.08Z"/><path class="cls-24" d="M102.84,84.27,105,77.08,103.67,79Z"/><path class="cls-25" d="M103.67,79l.76-8.25-2.33,2.75Z"/><path class="cls-26" d="M102.84,84.27l.83-5.31-4.5,7.55Z"/><path class="cls-27" d="M99.89,65l4.54,5.71-2.33,2.75Z"/><path class="cls-28" d="M103.67,79l-1.57-5.5-2.37,6.77Z"/><path class="cls-29" d="M99,93.5l3.89-9.23L99.2,91Z"/><path class="cls-30" d="M99.2,91l3.64-6.73-3.67,2.24Z"/><path class="cls-31" d="M102.84,84.27,99,93.49l5-9.75ZM95.43,97.7,99,93.5,99.2,91Zm-4.55,3.88,4.55-3.88-4.81,2.21Z"/><path class="cls-32" d="M64.37,104.28l-4.59,1.12.14-3.2Z"/><path class="cls-33" d="M38.85,60.68l1.26-.47-3.2,7.26Z"/><path class="cls-34" d="M36.91,67.47,39.34,67l.77-6.81Z"/><path class="cls-35" d="M37.06,76.2l-.15-8.73L39.34,67Z"/><path class="cls-36" d="M90.94,54l-4.87,5.58,8.47,1.4ZM48.43,48.24,54.65,44,49.1,46.74Z"/><path class="cls-37" d="M49.1,46.74l8.53-5-3,2.23Z"/><path class="cls-38" d="M54.65,44l7.79-3.71-4.81,1.48Z"/><path class="cls-39" d="M84.36,50.41l1.71,9.13L90.94,54Zm-25-6.86,7.26-2.91-4.22-.38Z"/><path class="cls-40" d="M68.33,39.2l-5.89,1.07,4.21.38Z"/><path class="cls-41" d="M73.9,40.57l-7.25.08,1.68-1.45"/><path class="cls-42" d="M87.61,44l-4.23.45,8.51,5.46ZM73.9,40.57l9.45,1.25-5.68-2Z"/><path class="cls-43" d="M87.61,44l-4.26-2.2,4.73,1.85Z"/><path class="cls-44" d="M38.4,84.81l2.8,2.3L37.07,76.2Zm38.54,21.71,2.46-5.78-9,2.4Zm2.46-5.78,7.48,2.08L87.33,97Z"/><path class="cls-45" d="M90.62,99.91,87.33,97l8-5.28Z"/><path class="cls-46" d="M95.29,91.75l-4.67,8.16,4.81-2.21L99.2,91Z"/><path class="cls-47" d="M88.08,43.67l-.47.35,5.92,3.55Zm-4.7.8L87.61,44l-4.26-2.2Z"/><path class="cls-48" d="M68.33,39.2l5.57,1.37,3.77-.77Zm15,2.62L73.9,40.57l9.48,3.9Z"/><path class="cls-49" d="M73.9,40.57l2.32,3.94,7.16,0Z"/><path class="cls-50" d="M73.9,40.57l2.32,3.94-7.72-.62Z"/><path class="cls-51" d="M66.65,40.65l1.85,3.24,5.4-3.32Z"/><path class="cls-52" d="M59.39,43.55l7.26-2.9,1.85,3.24Z"/><path class="cls-53" d="M54.65,44l4.74-.43,3-3.28Zm4.74-.43L64.32,48l4.18-4.15Z"/><path class="cls-54" d="M59.39,43.55l-8,7.52L54.65,44Z"/><path class="cls-55" d="M51.37,51.07l5.12.85,2.9-8.37Z"/><path class="cls-56" d="M56.49,51.92l2.9-8.37L64.32,48Z"/><path class="cls-57" d="M43.77,52.69l.31,3,4.35-7.47Z"/><path class="cls-58" d="M40.11,60.21l3.66-7.52.31,3Z"/><path class="cls-59" d="M44.08,55.71l4.35-7.47,2.94,2.83Z"/><path class="cls-60" d="M43.81,62.2l.27-6.49-4,4.5Z"/><path class="cls-61" d="M43.81,62.2l.27-6.49,5.14,4.18Z"/><path class="cls-62" d="M49.22,59.89l2.15-8.82-7.29,4.64Z"/><path class="cls-63" d="M49.22,59.89l2.15-8.82,5.12.85Z"/><path class="cls-64" d="M39.34,67l.77-6.81,3.7,2Z"/><path class="cls-65" d="M76.94,106.52l6.88-1.07,3.06-2.63ZM36.56,77.78l.51-1.59-.15-8.73ZM39.34,67l-2.27,9.17,4.12,10.92-2-12.64Z"/><path class="cls-66" d="M41.19,87.11l3.41.48L42.21,82Z"/><path class="cls-67" d="M90.62,99.91l-3.74,2.91-3.06,2.64,7.06-3.88Zm-20,7.62,5.34.15,7.9-2.23-6.88,1.07ZM44.37,93.45l3.58.68L44.6,87.59Z"/><path class="cls-68" d="M59.92,102.2l-6.07-4.67L51.33,100l8.45,5.45ZM38.4,84.81l4.06,8-1.27-5.71Zm-1.85-7,1.85,7L37.06,76.2Zm33.9,25.36-10.53-.94,4.45,2.08-4.59,1.12-5.53-1.72,6.11,2.66,10.22,1.2,6.37-1ZM44.6,87.59l-3.4-.48,3.18,6.34ZM39.17,74.47l2,12.64,1-5.09ZM48,94.13l-3.58-.68-1.9-.63,2.87,3.86,4,3.64,5,3.36L51.34,100Z"/><path class="cls-69" d="M39.34,67l4.81,7.44L43.81,62.2Z"/><path class="cls-70" d="M39.17,74.47l3,7.55,1.94-7.56Z"/><path class="cls-71" d="M42.21,82l1.94-7.56,2.4,6Z"/><path class="cls-72" d="M44.6,87.59l9.22,5.71L46.55,80.43Z"/><path class="cls-73" d="M42.47,92.82l1.9.63L41.2,87.11Zm20.36,3.29-2.91,6.09,10.53.94ZM44.6,87.59,48,94.14,51.33,100l2.52-2.42,0-4.23Z"/><path class="cls-74" d="M87.33,97l-.45,5.79,3.74-2.91ZM71.21,96.2l-.76,6.94,9-2.4-.32-7.8Z"/><path class="cls-75" d="M39.17,74.47h5L39.34,67ZM79.08,92.94l.32,7.8L87.33,97Z"/><path class="cls-76" d="M79.08,92.94l5.11-4.63L87.33,97Z"/><path class="cls-77" d="M87.33,97l3.86-11.69-7,3Z"/><path class="cls-78" d="M95.29,91.75l-8,5.28,3.86-11.69Z"/><path class="cls-79" d="M99.17,86.51l-8-1.17,4.1,6.41L99.2,91Z"/><path class="cls-80" d="M99.73,80.23l-8.54,5.11,8,1.17,4.5-7.55Z"/><path class="cls-81" d="M40.11,60.2l3.66-7.51-4.92,8Zm56.43,9.31,3.19,10.72,2.36-6.77Z"/><path class="cls-82" d="M102.1,73.46,99.89,65l-3.35,4.51Z"/><path class="cls-83" d="M91.19,85.34l8.54-5.11-8.28-3.68Z"/><path class="cls-84" d="M91.19,85.34l-7.73-7.81.73,10.78Z"/><path class="cls-85" d="M79.08,92.94l-5.94-5.26,11,.63Z"/><path class="cls-86" d="M44.6,87.59l1.95-7.16L42.21,82Zm28.54.08L71.21,96.2l7.87-3.26Z"/><path class="cls-87" d="M60.85,89.42l-5.72-2.91L53.82,93.3l9,2.81,8.39.09Z"/><path class="cls-88" d="M71.22,96.2l1.92-8.52L60.85,89.42Z"/><path class="cls-89" d="M44.15,74.46l2.46-7.87-2.8-4.39Z"/><path class="cls-90" d="M49.22,59.89,60,56.73,54.33,68.41Z"/><path class="cls-91" d="M91.19,85.34l-7.73-7.81,8-1Z"/><path class="cls-92" d="M99.73,80.23,96.54,69.51l-5.09,7Z"/><path class="cls-93" d="M84.19,88.31l-8.85-8.55,8.12-2.23Z"/><path class="cls-94" d="M73.14,87.68l11,.63-8.85-8.55Z"/><path class="cls-95" d="M73.14,87.68l-6-4.93,8.25-3Z"/><path class="cls-96" d="M48.43,48.24l.67-1.5-5.33,5.95Zm46.11,12.7,2,8.57L99.88,65Z"/><path class="cls-97" d="M49.22,59.89l5.11,8.52-7.72-1.82Z"/><path class="cls-98" d="M46.61,66.59l7.72,1.82-5.22,8.22Z"/><path class="cls-99" d="M60,56.73,64.32,48l-7.83,3.88Z"/><path class="cls-100" d="M44.15,74.46l5,2.17-2.56,3.8Z"/><path class="cls-101" d="M49.11,76.63l-2.56,3.8L53.82,93.3l1.31-6.79Z"/><path class="cls-102" d="M55.13,86.51l.8-12-6.82,2.07Z"/><path class="cls-103" d="M55.13,86.51l12-3.76L55.93,74.56Z"/><path class="cls-104" d="M67.09,82.75l-1.16-9.24-10,1Z"/><path class="cls-105" d="M65.93,73.51l8.43-3.16,1,9.41Z"/><path class="cls-106" d="M60.85,89.42l12.29-1.74-6-4.93Z"/><path class="cls-107" d="M60.85,89.42l-5.72-2.91,12-3.76Z"/><path class="cls-108" d="M60,56.73l7.33.78L64.32,48Z"/><path class="cls-109" d="M71.14,50.81,64.32,48l3.05,9.47Z"/><path class="cls-110" d="M71.14,50.81l7.27,5-11,1.72Z"/><path class="cls-111" d="M67.37,57.51,78.2,63.25l-3.84,7.1Z"/><path class="cls-112" d="M78.2,63.25l.21-7.46-11,1.72Z"/><path class="cls-113" d="M78.2,63.25l.21-7.46,7.66,3.75Z"/><path class="cls-114" d="M67.37,57.51l7,12.84L62.1,64.21Z"/><path class="cls-115" d="M65.93,73.51l8.43-3.16L62.1,64.21Z"/><path class="cls-116" d="M74.36,70.35l10.82-2-7-5.12Z"/><path class="cls-117" d="M86.07,59.54l-.89,8.83-7-5.12Z"/><path class="cls-118" d="M86.07,59.54l5.1,6.94-6,1.89Z"/><path class="cls-119" d="M94.54,60.94l-8.47-1.4,5.1,6.94Z"/><path class="cls-120" d="M51.38,51.07,54.66,44l-6.22,4.26Zm43.17,9.87-3.37,5.54,5.37,3Z"/><path class="cls-121" d="M91.45,76.55l5.09-7-5.37-3Z"/><path class="cls-122" d="M91.45,76.55l-.28-10.07-6,1.89Z"/><path class="cls-123" d="M49.22,59.89,60,56.73l-3.55-4.81ZM74.36,70.35l9.1,7.18,1.72-9.16Z"/><path class="cls-124" d="M75.34,79.76l8.12-2.23-9.1-7.18Z"/><path class="cls-125" d="M60,56.73l2.06,7.48,5.27-6.7Z"/><path class="cls-126" d="M60,56.73,54.33,68.41l7.77-4.2Z"/><path class="cls-127" d="M62.1,64.21,55.93,74.56l10-1Z"/><path class="cls-128" d="M65.93,73.51l1.16,9.24,8.25-3Zm-10,1,6.16-10.35-7.77,4.2Z"/><path class="cls-129" d="M49.11,76.63l5.22-8.22,1.6,6.15Z"/><path class="cls-130" d="M54.25,103.68l5.53,1.73L51.33,100Zm-.4-6.14,6.07,4.66,2.91-6.09-9-2.8Zm16.6,5.61.77-6.94-8.39-.1Zm9-2.41-2.46,5.78,9.94-3.7Z"/><path class="cls-131" d="M44.15,74.46l2.46-7.87,2.5,10Z"/><path class="cls-132" d="M46.61,66.59l2.61-6.7-5.41,2.32Zm38.56,1.78-1.72,9.16,8-1Z"/><path class="cls-133" d="M105.18,77.09v0l-.32-10.43v0L103.3,61.4h0l-4.49-8.47-5.17-5.46h0l-5.45-3.89h0l-4.73-1.85h0l-5.68-2h0l-9.35-.6h0l-5.89,1.07h0l-4.81,1.47h0l-8.53,5-5.33,5.94-4.91,8v0l-1.94,6.79v0l-.36,10.31v0l1.84,7v0l4.07,8v0l2.81,4h0l4,3.64h0l5,3.35h0l6.11,2.65h0l10.22,1.2h0l5.34.15h0l7.9-2.23h0l7.06-3.87h0l4.54-3.88L99,93.58v0l5-9.75v0l1.09-6.66v0ZM49.4,100.2l-1-.94,2.31,1.81Zm15,3.92-3.61-1.69,8.55.77ZM65.7,73.37l-9.47,1,5.84-9.82Zm-3.3-8.84L74,70.33l-8,3Zm3.39,9.14,1.1,8.74L56.34,74.66Zm1,9L55.29,86.3l.77-11.46Zm-.63-8.87L75,79.72l-7.78,2.82Zm.14-.28,8-3,.92,8.89ZM78.5,63.28l7.38-3.48-.83,8.29Zm6.3,5L74.65,70.14l3.6-6.66ZM74.36,70l-6.6-12.15L78,63.32ZM74,70,62.34,64.15l5-6.36ZM56,74.16l-1.49-5.67,7.17-3.88ZM55,86l-5.67-9.3,6.43-2Zm11.57-3-5.76,6.16-5.28-2.68ZM75.11,80l-2,7.41L67.39,82.8Zm-.55-9.3,8.56,6.76-7.64,2.1Zm.17-.26L85,68.57l-1.64,8.68Zm10.63-2.28.82-8.2,4.74,6.43ZM91,66.68l.26,9.4-5.85-7.62ZM78.37,63l.19-7,7.16,3.5Zm-.31,0L67.85,57.59,78.26,56Zm-15.89.87-1.91-7,6.82.72Zm-.25.26-7.24,3.91L60,57.17ZM55.75,74.45l-6.29,1.91,4.81-7.57ZM54.61,86,46.76,80.4l2.34-3.48Zm.64.78,5.27,2.69L54,93ZM67.11,83l5.66,4.61L61.26,89.21Zm8.31-2.91,8.37,8.08-10.44-.59Zm.22-.21,7.68-2.11L84,87.92Zm9.63-11.1,5.9,7.69-7.52.9Zm6.07-2,5,2.82-4.73,6.53Zm0-.33,3.09-5.07,1.84,7.86Zm-.23-.22-4.74-6.44,7.87,1.3ZM78.69,55.75l5.57-5,1.6,8.56Zm-11,1.55L71.2,51,78,55.69Zm-7.38-.7,4-8.15,2.86,8.88Zm-6,11.49L49.46,60l10.29-3Zm-5.14,8.15-2.35-9.45,7.26,1.72Zm-2.59,3.87-2.15-5.35,4.45,1.94ZM55,86.58l-1.21,6.28L47,81Zm5.79,3.07,1.85,6.22-8.39-2.61Zm12.19-1.79L71.11,96l-9.84-6.44Zm10.87.58-4.73,4.29-5.5-4.88Zm-.17-10.51,7.27,7.36-6.59,2.79Zm.15-.29,7.5-.91L91,85Zm12.69-7.79,3,10.1-7.79-3.46Zm-1.7-8.53L99.67,65l-3,4.12Zm-8.42-1.89,4.55-5.2,3.35,6.51Zm-.2-.23-1.59-8.5L90.69,54ZM78.4,55.6,71.62,51,84,50.58Zm-11,1.52-2.85-8.81,6.36,2.58ZM60,56.44,56.72,52,64,48.38Zm-.23.21L49.7,59.59l6.78-7.43ZM54,68.18l-7.18-1.7,2.43-6.24Zm-5.12,8.18-4.55-2,2.27-7.21Zm-2.53,4-3.92,1.43L44.18,75Zm7,12.51-8.6-5.33,1.82-6.68Zm8.77,3.21L54,97.35l0-3.84Zm-1-6.28L70.69,96,62.94,96ZM73.23,88l5.56,4.92-7.36,3.06Zm10.9.62,2.93,8.14-7.7-3.82Zm.26-.18,6.55-2.78L87.33,96.56Zm7.22-11.61,7.79,3.46-8,4.82Zm5.22-6.89,5.09,3.63-2.18,6.2Zm-.06-.42,3.06-4.13,2,7.75Zm-2-8.59,1.4-4.41,3.39,8.05Zm-.22-.35-3.25-6.28,4.67,1.86Zm-9.6-10,6.79-.45-.86,3.64Zm-13.43.12,4.78-5.93,7.65,5.55Zm-.28-.15-2.46-6.44,7.19.58Zm-.32,0L64.6,48l3.85-3.82ZM56.77,51.62l2.7-7.79L64.06,48Zm-7.25,7.73,2-8.1,4.7.78Zm-2.93,6.91-2.54-4L49,60.19Zm-.14.36-2.17,6.92L44,62.76Zm-2.5,8-1.76,6.91-2.78-6.91Zm-4.61-.3.15-6.79,4.38,6.78Zm7,6.36-1.77,6.44-2.14-5Zm7.05,12.53L48.05,94l-3-6Zm.29.27,0,3.78-5.28-3Zm8.9,2.82L59.86,102l-5.63-4.34Zm.32.06L70,103l-9.86-.88Zm.35-.1,7.82.09-.72,6.47Zm15.7-3.09.3,7.31-7.66-4.27Zm.31,0L87,97.05l-7.43,3.47Zm12-7.49,3.83,6-7.45,5Zm.26-.16,7.39,1.09-3.61,4.82Zm.14-.29,7.9-4.73L99,86.36ZM102.09,74l1.4,4.89L100,80Zm-1.87-8.33,4,5-2.06,2.43Zm-3.74-9.18,5.2,3.81-1.79,4.3Zm-5.36-2.62L92,50.28l3.74,5.41Zm-6.63-3.61-.91-5.46,7.82,5Zm-.34-.19-7.46-5.4,6.55,0ZM69,43.77l4.86-3,2.09,3.54Zm-4.68,4.06-4.5-4.11,8.33.32Zm-7.92,3.91L51.71,51,59,44.09Zm-7.26,7.87-4.79-3.88,6.79-4.33Zm-.21.24L44,62,44.22,56ZM44,73.91,39.53,67l4.14-4.46ZM42.05,82l-.84,4.21L39.54,75.8Zm.21.51,2.09,4.86-3-.42Zm5.41,11.38-3.14-.61.2-5.13Zm5.93,3.64L51.37,99.7l-3-5.15Zm.26.17,5.36,4.13-7.58-2Zm17.48-1.28L79,100.69l-8.36,2.24Zm15.82.83-.42,5.34-6.9-1.92Zm7.67-5-4.25,7.45-3-2.63ZM99,87l0,3.89-3.39.65Zm.85-6.63,3.46-1.12-3.94,6.62Zm2.4-6.85,2-2.31-.63,6.93ZM100.06,65l1.76-4.24,2.28,9.33Zm-3.74-9,1.23-2.16,3.73,5.79Zm-.22-.25-3.66-5.27,4.9,3.12ZM83.82,44.57l3.71-.39,3.74,5.17Zm-7.52-.21-2-3.47,8.34,3.43Zm-7.75-.68L66.91,40.8l6.44-.07Zm-.33,0-8.1-.31,6.45-2.58ZM51.85,50.41l2.91-6.28L59,43.74Zm-.52.4-2.65-2.55,5.59-3.83Zm-.2.23-6.6,4.2,3.94-6.76Zm-7.46,10.9-3.31-1.78,3.55-4Zm-.1.3-4,4.33.7-6.12ZM39,74.39l-1.7,1.39,1.83-7.37Zm.05.37,1.73,10.89-3.56-9.4Zm5.37,13-.2,5.11-2.77-5.53Zm3.41,6.54,2.83,4.86L44.86,93.7Zm11.91,8-.12,2.81-7.41-4.77Zm.31.12,3.84,1.8-4,1Zm10.23.9.12,3.94-5.58-2.92ZM79.13,101l-2.27,5.34-6-3.12Zm.36,0,6.89,1.91-9.15,3.42Zm8-3.58,2.91,2.55-3.32,2.59Zm7.92-5.46,3.36-.65L91.38,98.9Zm4-1.49,0-3.8,3.1-1.9Zm.28-4.34,3.76-6.33-.69,4.46Zm4.8-13.68.44,4.66-1,1.37Zm-2.29-11.66.86.81.86,6.24Zm-4.37-7.12.81-.41,2.34,5.31ZM92.1,49.87l1.42-2L97,53Zm-.22-.22-3.71-5.11,5.13,3.07ZM83.53,44.3l0-2.23,3.58,1.85Zm-.31-.06-8.17-3.36L83.19,42ZM67.07,40.49l1.3-1.12,4.31,1.06ZM60,43.15l2.53-2.73,3.49.32Zm-.65.25-3.82.35,6.28-3ZM48.79,47.8l.43-.95,3.51-1.74Zm-4.61,7.43-.25-2.48,3.82-3.64Zm-.26.43-3.17,3.59,2.92-6ZM39.2,66.89l-2,.38,2.68-6.07Zm-.07.33L37.19,75l-.12-7.41Zm1.7,19.4-2.3-1.89-1.1-7.09Zm3.23,6.55-1.47-.48-1-4.4Zm6.27,6.06-4.87-2.64L44.68,94Zm.9.83,2.11,2.7L46.88,97.7Zm.78.51,6.72,4.34-4.39-1.38Zm12.33,3.86,5.22,2.73-9.08-1.79Zm6.27-1,5.84,3-5.73.91Zm15.51-.14-2.37,2-5.33.83Zm4.38-3.07.2,1.28-3.07,1Zm8-8.21-3.15,5.61-4,1.85Zm.88-.94,2.11-3.9L99.2,92.49Zm4.47-12,.79-1.1-1.27,4.21Zm.76-8.32v-.08l.08-1,.08,2.7Zm-.21-1.53-.8-5.79,1,3.28Zm-2.36-9-1.46-3.3,2,3.85Zm-4.4-6.82L94.69,49l3.72,3.91ZM87.89,44l.19-.14,2.23,1.6Zm-.3-.16-1.51-.79,1.68.67ZM74.83,40.54,77.66,40l4.27,1.51Zm-.92-.12-3.86-1,6.47.41Zm-7.31.07-3-.27,4.21-.76ZM56,43.18l1.72-1.29L60.48,41Zm-1.41.67-1.5.74,2.3-1.34Zm-6.27,4.3-1.77,1.69,2-2.26ZM40,60.08l-.79.3,3.07-5Zm-1,.71.85-.31-2.15,4.88ZM36.86,73.46l0,2.71-.15.5ZM37,76.87l.77,5-1.07-4.07Zm4,10.33,1,4.45L38.87,85.4Zm3.19,6.36.7,2.33-2.06-2.77Zm15.44,12L60,106l-3-1.31Zm.77.65-.36-.56,6.57,1.29Zm16.09.55-.69.78-3.6-.1Zm.48-.08,4.3-.66-4.94,1.39ZM87,102.94l2.53-.78L85,104.61Zm4-1.67-.2-1.27,3.69-1.7Zm8-9.56-.17,1.71-2.42,2.89Zm4-7.34.62-.3-2.85,5.6Zm.83-.74-.7.34,1.4-4.62Z"/><path class="cls-134" d="M105.18,77.09v0l-.32-10.43v0L103.3,61.4h0l-4.49-8.47-5.17-5.46h0l-5.45-3.89h0l-4.73-1.85h0l-5.68-2h0l-9.35-.6h0l-5.89,1.07h0l-4.81,1.47h0l-8.53,5-5.33,5.94-4.91,8v0l-1.94,6.79v0l-.36,10.31v0l1.84,7v0l4.07,8v0l2.81,4h0l4,3.64h0l5,3.35h0l6.11,2.65h0l10.22,1.2h0l5.34.15h0l7.9-2.23h0l7.06-3.87h0l4.54-3.88L99,93.58v0l5-9.75v0l1.09-6.66v0ZM49.4,100.2l-1-.94,2.31,1.81Zm15,3.92-3.61-1.69,8.55.77ZM65.7,73.37l-9.47,1,5.84-9.82Zm-3.3-8.84L74,70.33l-8,3Zm3.39,9.14,1.1,8.74L56.34,74.66Zm1,9L55.29,86.3l.77-11.46Zm-.63-8.87L75,79.72l-7.78,2.82Zm.14-.28,8-3,.92,8.89ZM78.5,63.28l7.38-3.48-.83,8.29Zm6.3,5L74.65,70.14l3.6-6.66ZM74.36,70l-6.6-12.15L78,63.32ZM74,70,62.34,64.15l5-6.36ZM56,74.16l-1.49-5.67,7.17-3.88ZM55,86l-5.67-9.3,6.43-2Zm11.57-3-5.76,6.16-5.28-2.68ZM75.11,80l-2,7.41L67.39,82.8Zm-.55-9.3,8.56,6.76-7.64,2.1Zm.17-.26L85,68.57l-1.64,8.68Zm10.63-2.28.82-8.2,4.74,6.43ZM91,66.68l.26,9.4-5.85-7.62ZM78.37,63l.19-7,7.16,3.5Zm-.31,0L67.85,57.59,78.26,56Zm-15.89.87-1.91-7,6.82.72Zm-.25.26-7.24,3.91L60,57.17ZM55.75,74.45l-6.29,1.91,4.81-7.57ZM54.61,86,46.76,80.4l2.34-3.48Zm.64.78,5.27,2.69L54,93ZM67.11,83l5.66,4.61L61.26,89.21Zm8.31-2.91,8.37,8.08-10.44-.59Zm.22-.21,7.68-2.11L84,87.92Zm9.63-11.1,5.9,7.69-7.52.9Zm6.07-2,5,2.82-4.73,6.53Zm0-.33,3.09-5.07,1.84,7.86Zm-.23-.22-4.74-6.44,7.87,1.3ZM78.69,55.75l5.57-5,1.6,8.56Zm-11,1.55L71.2,51,78,55.69Zm-7.38-.7,4-8.15,2.86,8.88Zm-6,11.49L49.46,60l10.29-3Zm-5.14,8.15-2.35-9.45,7.26,1.72Zm-2.59,3.87-2.15-5.35,4.45,1.94ZM55,86.58l-1.21,6.28L47,81Zm5.79,3.07,1.85,6.22-8.39-2.61Zm12.19-1.79L71.11,96l-9.84-6.44Zm10.87.58-4.73,4.29-5.5-4.88Zm-.17-10.51,7.27,7.36-6.59,2.79Zm.15-.29,7.5-.91L91,85Zm12.69-7.79,3,10.1-7.79-3.46Zm-1.7-8.53L99.67,65l-3,4.12Zm-8.42-1.89,4.55-5.2,3.35,6.51Zm-.2-.23-1.59-8.5L90.69,54ZM78.4,55.6,71.62,51,84,50.58Zm-11,1.52-2.85-8.81,6.36,2.58ZM60,56.44,56.72,52,64,48.38Zm-.23.21L49.7,59.59l6.78-7.43ZM54,68.18l-7.18-1.7,2.43-6.24Zm-5.12,8.18-4.55-2,2.27-7.21Zm-2.53,4-3.92,1.43L44.18,75Zm7,12.51-8.6-5.33,1.82-6.68Zm8.77,3.21L54,97.35l0-3.84Zm-1-6.28L70.69,96,62.94,96ZM73.23,88l5.56,4.92-7.36,3.06Zm10.9.62,2.93,8.14-7.7-3.82Zm.26-.18,6.55-2.78L87.33,96.56Zm7.22-11.61,7.79,3.46-8,4.82Zm5.22-6.89,5.09,3.63-2.18,6.2Zm-.06-.42,3.06-4.13,2,7.75Zm-2-8.59,1.4-4.41,3.39,8.05Zm-.22-.35-3.25-6.28,4.67,1.86Zm-9.6-10,6.79-.45-.86,3.64Zm-13.43.12,4.78-5.93,7.65,5.55Zm-.28-.15-2.46-6.44,7.19.58Zm-.32,0L64.6,48l3.85-3.82ZM56.77,51.62l2.7-7.79L64.06,48Zm-7.25,7.73,2-8.1,4.7.78Zm-2.93,6.91-2.54-4L49,60.19Zm-.14.36-2.17,6.92L44,62.76Zm-2.5,8-1.76,6.91-2.78-6.91Zm-4.61-.3.15-6.79,4.38,6.78Zm7,6.36-1.77,6.44-2.14-5Zm7.05,12.53L48.05,94l-3-6Zm.29.27,0,3.78-5.28-3Zm8.9,2.82L59.86,102l-5.63-4.34Zm.32.06L70,103l-9.86-.88Zm.35-.1,7.82.09-.72,6.47Zm15.7-3.09.3,7.31-7.66-4.27Zm.31,0L87,97.05l-7.43,3.47Zm12-7.49,3.83,6-7.45,5Zm.26-.16,7.39,1.09-3.61,4.82Zm.14-.29,7.9-4.73L99,86.36ZM102.09,74l1.4,4.89L100,80Zm-1.87-8.33,4,5-2.06,2.43Zm-3.74-9.18,5.2,3.81-1.79,4.3Zm-5.36-2.62L92,50.28l3.74,5.41Zm-6.63-3.61-.91-5.46,7.82,5Zm-.34-.19-7.46-5.4,6.55,0ZM69,43.77l4.86-3,2.09,3.54Zm-4.68,4.06-4.5-4.11,8.33.32Zm-7.92,3.91L51.71,51,59,44.09Zm-7.26,7.87-4.79-3.88,6.79-4.33Zm-.21.24L44,62,44.22,56ZM44,73.91,39.53,67l4.14-4.46ZM42.05,82l-.84,4.21L39.54,75.8Zm.21.51,2.09,4.86-3-.42Zm5.41,11.38-3.14-.61.2-5.13Zm5.93,3.64L51.37,99.7l-3-5.15Zm.26.17,5.36,4.13-7.58-2Zm17.48-1.28L79,100.69l-8.36,2.24Zm15.82.83-.42,5.34-6.9-1.92Zm7.67-5-4.25,7.45-3-2.63ZM99,87l0,3.89-3.39.65Zm.85-6.63,3.46-1.12-3.94,6.62Zm2.4-6.85,2-2.31-.63,6.93ZM100.06,65l1.76-4.24,2.28,9.33Zm-3.74-9,1.23-2.16,3.73,5.79Zm-.22-.25-3.66-5.27,4.9,3.12ZM83.82,44.57l3.71-.39,3.74,5.17Zm-7.52-.21-2-3.47,8.34,3.43Zm-7.75-.68L66.91,40.8l6.44-.07Zm-.33,0-8.1-.31,6.45-2.58ZM51.85,50.41l2.91-6.28L59,43.74Zm-.52.4-2.65-2.55,5.59-3.83Zm-.2.23-6.6,4.2,3.94-6.76Zm-7.46,10.9-3.31-1.78,3.55-4Zm-.1.3-4,4.33.7-6.12ZM39,74.39l-1.7,1.39,1.83-7.37Zm.05.37,1.73,10.89-3.56-9.4Zm5.37,13-.2,5.11-2.77-5.53Zm3.41,6.54,2.83,4.86L44.86,93.7Zm11.91,8-.12,2.81-7.41-4.77Zm.31.12,3.84,1.8-4,1Zm10.23.9.12,3.94-5.58-2.92ZM79.13,101l-2.27,5.34-6-3.12Zm.36,0,6.89,1.91-9.15,3.42Zm8-3.58,2.91,2.55-3.32,2.59Zm7.92-5.46,3.36-.65L91.38,98.9Zm4-1.49,0-3.8,3.1-1.9Zm.28-4.34,3.76-6.33-.69,4.46Zm4.8-13.68.44,4.66-1,1.37Zm-2.29-11.66.86.81.86,6.24Zm-4.37-7.12.81-.41,2.34,5.31ZM92.1,49.87l1.42-2L97,53Zm-.22-.22-3.71-5.11,5.13,3.07ZM83.53,44.3l0-2.23,3.58,1.85Zm-.31-.06-8.17-3.36L83.19,42ZM67.07,40.49l1.3-1.12,4.31,1.06ZM60,43.15l2.53-2.73,3.49.32Zm-.65.25-3.82.35,6.28-3ZM48.79,47.8l.43-.95,3.51-1.74Zm-4.61,7.43-.25-2.48,3.82-3.64Zm-.26.43-3.17,3.59,2.92-6ZM39.2,66.89l-2,.38,2.68-6.07Zm-.07.33L37.19,75l-.12-7.41Zm1.7,19.4-2.3-1.89-1.1-7.09Zm3.23,6.55-1.47-.48-1-4.4Zm6.27,6.06-4.87-2.64L44.68,94Zm.9.83,2.11,2.7L46.88,97.7Zm.78.51,6.72,4.34-4.39-1.38Zm12.33,3.86,5.22,2.73-9.08-1.79Zm6.27-1,5.84,3-5.73.91Zm15.51-.14-2.37,2-5.33.83Zm4.38-3.07.2,1.28-3.07,1Zm8-8.21-3.15,5.61-4,1.85Zm.88-.94,2.11-3.9L99.2,92.49Zm4.47-12,.79-1.1-1.27,4.21Zm.76-8.32v-.08l.08-1,.08,2.7Zm-.21-1.53-.8-5.79,1,3.28Zm-2.36-9-1.46-3.3,2,3.85Zm-4.4-6.82L94.69,49l3.72,3.91ZM87.89,44l.19-.14,2.23,1.6Zm-.3-.16-1.51-.79,1.68.67ZM74.83,40.54,77.66,40l4.27,1.51Zm-.92-.12-3.86-1,6.47.41Zm-7.31.07-3-.27,4.21-.76ZM56,43.18l1.72-1.29L60.48,41Zm-1.41.67-1.5.74,2.3-1.34Zm-6.27,4.3-1.77,1.69,2-2.26ZM40,60.08l-.79.3,3.07-5Zm-1,.71.85-.31-2.15,4.88ZM36.86,73.46l0,2.71-.15.5ZM37,76.87l.77,5-1.07-4.07Zm4,10.33,1,4.45L38.87,85.4Zm3.19,6.36.7,2.33-2.06-2.77Zm15.44,12L60,106l-3-1.31Zm.77.65-.36-.56,6.57,1.29Zm16.09.55-.69.78-3.6-.1Zm.48-.08,4.3-.66-4.94,1.39ZM87,102.94l2.53-.78L85,104.61Zm4-1.67-.2-1.27,3.69-1.7Zm8-9.56-.17,1.71-2.42,2.89Zm4-7.34.62-.3-2.85,5.6Zm.83-.74-.7.34,1.4-4.62Z"/><path class="cls-135" d="M135.9,48.8c-3.07-7.37-9.28-15.33-14.16-17.84a73.23,73.23,0,0,1,7.14,21.4s0,0,0,.06v.08a63.77,63.77,0,0,1-2.2,47.58c-8.08,17.34-27.67,35.11-58.32,34.24C35.27,133.39,6.1,108.84.65,76.69c-1-5.07,0-7.64.5-11.76A52.22,52.22,0,0,0,0,74.66V75A70.59,70.59,0,0,0,140.15,86.94c.12-.9.22-1.81.33-2.71A72.5,72.5,0,0,0,135.9,48.8Z"/><path class="cls-136" d="M135.9,48.8c-3.07-7.37-9.28-15.33-14.16-17.84a73.23,73.23,0,0,1,7.14,21.4s0,0,0,.06v.08a63.77,63.77,0,0,1-2.2,47.58c-8.08,17.34-27.67,35.11-58.32,34.24C35.27,133.39,6.1,108.84.65,76.69c-1-5.07,0-7.64.5-11.76A52.22,52.22,0,0,0,0,74.66V75A70.59,70.59,0,0,0,140.15,86.94c.12-.9.22-1.81.33-2.71A72.5,72.5,0,0,0,135.9,48.8Z"/><path class="cls-137" d="M.65,76.69c5.45,32.15,34.62,56.7,67.74,57.63,30.65.87,50.23-16.9,58.32-34.24a63.77,63.77,0,0,0,2.2-47.58v-.07s0-.08,0-.07v.12c2.5,16.33-5.81,32.15-18.81,42.85l0,.09C84.72,116,60.48,107.84,55.57,104.5l-1-.51C39.77,96.94,33.67,83.5,35,72A18.12,18.12,0,0,1,18.26,61.46a26.65,26.65,0,0,1,26-1,35.2,35.2,0,0,0,26.5,1c0-.58-12.31-5.46-17.1-10.17-2.56-2.52-3.77-3.73-4.85-4.65a20.13,20.13,0,0,0-1.82-1.37l-1.45-1C40.34,41,30.1,41.15,29.76,41.16h0c-2.8-3.54-2.6-15.22-2.44-17.66a12.79,12.79,0,0,0-2.37,1.25A51,51,0,0,0,18,30.65a60.83,60.83,0,0,0-6.6,7.91h0A59.35,59.35,0,0,0,2,59.91c0,.15-2.54,11.1-1.31,16.78Z"/><path class="cls-138" d="M95.48,48.87A38.33,38.33,0,0,1,102,57.42a12.56,12.56,0,0,1,1.06.87c16,14.73,7.62,35.56,7,37,13-10.7,21.32-26.52,18.81-42.85-8-19.87-21.51-27.88-32.56-45.33-.57-.89-1.12-1.79-1.66-2.7-.28-.48-.54-1-.78-1.46a12.41,12.41,0,0,1-1-2.8A.18.18,0,0,0,92.68,0h-.13l0,0-.05,0c-2.73,1.3-18.92,26.91,3,48.82Z"/><path class="cls-139" d="M68.33,39.2l9.34.6,5.68,2,4.73,1.85,5.45,3.9L98.66,53l1.78,3.36c.39.24.78.49,1.16.75l.43.32a38.53,38.53,0,0,0-6.54-8.54C73.54,27,89.73,1.35,92.46.05l0,0C74.76,10.38,68.75,29.57,68.2,39.18v0Z"/><path class="cls-140" d="M45.47,44.31c.49.31,1,.63,1.46,1A32.64,32.64,0,0,1,46.73,28a52.23,52.23,0,0,0-17,13.12C30.09,41.15,40.32,41,45.47,44.31Z"/><path class="cls-141" d="M38.9,81.4s3.25-12.13,23.33-12.13c2.17,0,8.36-6,8.48-7.8a35.2,35.2,0,0,1-26.5-1,26.65,26.65,0,0,0-25.95,1A18.12,18.12,0,0,0,35,72c-1.31,11.53,4.8,25,19.56,32,.33.16.64.33,1,.48C46.9,100,39.79,91.61,38.9,81.4Z"/><path class="cls-142" d="M103.09,58.28a11.14,11.14,0,0,0-1.06-.87l-.43-.32a24.38,24.38,0,0,0-17-4.13C110,65.64,103.15,109.3,68,107.65a30.93,30.93,0,0,1-9.18-1.77c-.7-.26-1.39-.54-2.08-.84l-1.19-.57,0,0c4.91,3.34,29.15,11.52,54.48-9.09l0-.09C110.71,93.84,119.1,73,103.09,58.28Z"/><path class="cls-143" d="M135.89,48.8c-3.07-7.37-9.28-15.33-14.16-17.84a72.89,72.89,0,0,1,7.15,21.39v.12c-8-19.87-21.51-27.88-32.56-45.33-.58-.89-1.13-1.79-1.67-2.7-.27-.48-.53-1-.78-1.46a13,13,0,0,1-1-2.79A.18.18,0,0,0,92.67,0h-.13l0,0,0,0,0,0C74.75,10.38,68.74,29.64,68.19,39.24l.14,0,9.34.6,5.26,1.87,5.15,2,5.45,3.89L98.65,53s1.77,3.31,1.79,3.36A24.21,24.21,0,0,0,84.57,53C110,65.64,103.14,109.3,68,107.65a31.3,31.3,0,0,1-9.18-1.76c-.69-.26-1.38-.55-2.07-.86-.4-.18-.8-.36-1.19-.56l0,0-1-.51c.33.15.64.33,1,.48C46.9,100,39.78,91.61,38.89,81.39c0,0,3.26-12.12,23.33-12.12,2.17,0,8.37-6,8.49-7.81,0-.57-12.31-5.45-17.1-10.17-2.56-2.51-3.78-3.73-4.85-4.64q-.88-.74-1.83-1.38A32.61,32.61,0,0,1,46.73,28a52.34,52.34,0,0,0-17,13.12h0c-2.8-3.54-2.6-15.22-2.44-17.66a12.48,12.48,0,0,0-2.37,1.25,51.07,51.07,0,0,0-6.9,5.9,61.48,61.48,0,0,0-6.59,7.9A59.48,59.48,0,0,0,2,59.91l-.09.46c-.14.62-.73,3.77-.82,4.45a83.1,83.1,0,0,0-1,9.84V75A70.59,70.59,0,0,0,140.15,86.94c.12-.9.22-1.81.33-2.72a72.46,72.46,0,0,0-4.59-35.42Zm-7,3.62v0Z"/><path class="cls-144" d="M70.71,61.47s-.3.12-.85.31c-1.38,2.33-6.28,6.78-8.15,6.77-20.07-.09-23.39,11.91-23.39,11.91A25.65,25.65,0,0,0,42.26,92,25.72,25.72,0,0,1,38.9,81.4s3.25-12.13,23.33-12.13c2.17,0,8.36-6,8.48-7.8Z"/><path class="cls-145" d="M128.91,52.5v-.07s0-.08,0-.07,0,0,0,.12c-.47-1.18-1-2.34-1.52-3.49-.18-.39-.36-.75-.55-1.12-.36-.73-.71-1.46-1.07-2.14-.23-.43-.47-.84-.7-1.25-.35-.61-.68-1.22-1-1.82-.26-.43-.53-.84-.79-1.26s-.69-1.09-1-1.62l-.84-1.24c-.35-.5-.7-1-1.06-1.5s-.6-.81-.9-1.2l-1.07-1.42c-.31-.4-.63-.79-.94-1.18l-1.1-1.36-1-1.16c-.18-.21-.35-.43-.53-.63l.22.27c-6.13-7.21-12.77-13.86-18.7-23.22-.57-.89-1.12-1.79-1.66-2.7-.28-.47-.54-1-.78-1.46a14.56,14.56,0,0,1-1-2.47,1.55,1.55,0,0,0,0-.15,1,1,0,0,1,0-.17A.18.18,0,0,0,92.68,0h-.13l0,0-.05,0A1.88,1.88,0,0,0,92,.37l-.1.09a7.7,7.7,0,0,0-.56.59l0,0c-4.22,5-15,26.57,2.38,46-16.29-19.17-6-39.89-1.56-45.32A15.85,15.85,0,0,0,93,3.83c.24.5.5,1,.78,1.46.54.93,1.1,1.82,1.66,2.7,11,17.45,24.59,25.47,32.56,45.33a.63.63,0,0,0,0-.11v.13a63.75,63.75,0,0,1-2.19,47.59A58.55,58.55,0,0,1,114.65,117a58.71,58.71,0,0,0,12.06-16.93,63.77,63.77,0,0,0,2.2-47.58Z"/><path class="cls-146" d="M92.46.05l0,0c-16,9.35-22.43,25.84-24,36A52.2,52.2,0,0,1,89.85,3.15,10,10,0,0,1,92.46.05Z"/><path class="cls-147" d="M110.05,95.41l0-.09c.62-1.48,9-22.31-7-37a11.14,11.14,0,0,0-1.06-.87l-.43-.32a24.62,24.62,0,0,0-16.38-4.23h0l-.64.1c25.1,12.54,18.72,55.36-15.43,54.72l.28,0c34.62,1.36,41.44-41.1,17.38-54.41a25.57,25.57,0,0,1,13.37,3.86l.45.31a12.41,12.41,0,0,1,1.09.82c16.57,14.09,9,35.24,8.44,36.75l0,.09"/><path class="cls-148" d="M44.4,61.13a35.29,35.29,0,0,0,25.52.63,35.32,35.32,0,0,1-25.71-1.33,26.83,26.83,0,0,0-25.61.81l-.09.06h0l-.08.06-.06,0,0,0h0l0,0h0l0,.08h0l0,.09v0l.06.13h0c.15.3.3.6.47.89A18,18,0,0,0,35,71.94c-1.27,11.18,4.43,24.16,18.26,31.37C40,95.69,34.48,81.88,36,70.89c-10.2-.27-14.76-6.38-16.07-9a27.89,27.89,0,0,1,24.45-.78Z"/><path class="cls-149" d="M46.93,45.24,46.58,45l.36.25ZM46.85,45A32.76,32.76,0,0,1,46.74,28,51.67,51.67,0,0,0,30.4,40.43,53.68,53.68,0,0,1,45.3,29.91,33.1,33.1,0,0,0,46.85,45Z"/><path class="cls-150" d="M2.35,84.08l-.05-.2A65.07,65.07,0,0,1,.66,76.69a30.77,30.77,0,0,1,0-9.09A61.53,61.53,0,0,0,0,74.66V75a70.55,70.55,0,0,0,47.37,66.59,71.35,71.35,0,0,1-45-57.53Z"/><path class="cls-151" d="M1.79,77C.55,71.3,3.06,60.35,3.09,60.19a59.82,59.82,0,0,1,9.47-21.36h0a62.21,62.21,0,0,1,6.59-7.89A51.76,51.76,0,0,1,26.05,25l.3-.18c0,5.36.28,14.41,2.76,17.38h0c.34,0,10.61-.47,15.87,2.73.58.36,1.06.65,1.49.93a20.42,20.42,0,0,1,1.87,1.33c1.1.88,2.36,2.06,5,4.51,3.82,3.55,12.13,7.08,15.73,8.76C65.6,58.73,57.34,55,53.61,51.3c-2.56-2.52-3.77-3.74-4.85-4.65A22.15,22.15,0,0,0,47,45.27l-1.46-1C40.34,41,30.1,41.15,29.77,41.16h0c-2.55-3.24-2.61-13.27-2.48-16.83a2.42,2.42,0,0,1,0-.39v-.23a1.41,1.41,0,0,1,0-.21h-.13l-.06,0-.06,0-.07,0-.07,0-.07,0-.09,0-.07,0-.11.05-.06,0c-.53.29-1,.59-1.57.91a51.07,51.07,0,0,0-6.9,5.9,61.75,61.75,0,0,0-6.59,7.93h0A59.35,59.35,0,0,0,2,59.91c0,.15-2.55,11.1-1.31,16.78C5.29,104,27.11,125.9,53.92,132.38,27.63,125.57,6.36,104,1.79,77Z"/><path class="cls-152" d="M135.9,48.8a43.28,43.28,0,0,0-12.39-16.73l-.13-.09c-.14-.1-.27-.2-.42-.29l-.15-.1-.4-.25-.15-.09-.52-.29c.19.37.37.74.55,1.12s.23.46.34.7a72.07,72.07,0,0,1,6.25,19.58v.11c2.5,16.33-5.81,32.16-18.81,42.85l0,.09c-16.16,13.15-31.87,14.58-42.41,13,10.5,2,27.06,1.13,44.12-12.74l0-.09c13-10.7,21.32-26.52,18.82-42.85l0-.11a71.1,71.1,0,0,0-5.14-17.19,46.81,46.81,0,0,1,7.72,11A70.31,70.31,0,0,1,139.68,81c-.06.9-.1,1.8-.17,2.69a70.26,70.26,0,0,1-66.24,61.47,72.09,72.09,0,0,1-13.93-.57,70.63,70.63,0,0,0,80.81-57.68c.12-.9.22-1.81.33-2.71A72.5,72.5,0,0,0,135.9,48.8Zm-7,3.7v0Z"/></g></g></svg>