<svg xmlns="http://www.w3.org/2000/svg" viewBox="0 0 127.53 127.53"><defs><style>.cls-1{fill:#de4c36;}</style></defs><g id="Layer_2" data-name="Layer 2"><g id="Layer_1-2" data-name="Layer 1"><path class="cls-1" d="M125.12,58.08,69.44,2.41a8.2,8.2,0,0,0-11.61,0L46.27,14,60.93,28.63A9.76,9.76,0,0,1,73.29,41.07L87.42,55.2a9.76,9.76,0,1,1-5.85,5.51L68.39,47.53V82.22A10.11,10.11,0,0,1,71,84.07a9.77,9.77,0,1,1-10.62-2.13v-35a9.45,9.45,0,0,1-3.2-2.13A9.77,9.77,0,0,1,55,34.11L40.59,19.65,2.41,57.83a8.2,8.2,0,0,0,0,11.61l55.68,55.68a8.2,8.2,0,0,0,11.61,0L125.12,69.7a8.21,8.21,0,0,0,0-11.62"/></g></g></svg>