<svg xmlns="http://www.w3.org/2000/svg" viewBox="0 0 80.12 60.1"><defs><style>.cls-1{fill:#4285f4;}.cls-2{fill:#34a853;}.cls-3{fill:#fbbc04;}.cls-4{fill:#ea4335;fill-rule:evenodd;}.cls-5{fill:#c5221f;}</style></defs><g id="Layer_2" data-name="Layer 2"><g id="Layer_1-2" data-name="Layer 1"><path class="cls-1" d="M5.46,60.1H18.21V29.15L0,15.49V54.64A5.45,5.45,0,0,0,5.46,60.1Z"/><path class="cls-2" d="M61.91,60.1H74.66a5.46,5.46,0,0,0,5.46-5.46V15.49L61.91,29.15Z"/><path class="cls-3" d="M61.91,5.48V29.15L80.12,15.49V8.21A8.2,8.2,0,0,0,67,1.65Z"/><path class="cls-4" d="M18.21,29.15V5.48L40.06,21.87,61.91,5.48V29.15L40.06,45.54Z"/><path class="cls-5" d="M0,8.21v7.28L18.21,29.15V5.48l-5.1-3.83A8.2,8.2,0,0,0,0,8.21Z"/></g></g></svg>