<svg xmlns="http://www.w3.org/2000/svg" viewBox="0 0 120.95 171"><g data-name="Layer 2"><g data-name="Layer 1"><path d="M121 33.37l-11 123.85L60.4 171 11 157.24 0 33.37z" fill="#e44d26"/><path d="M60.06 160.16L100.57 149l9.54-105.66h-50z" fill="#f16529"/><path d="M38.88 74.4h21.18V59.22H22.52l.36 4.07 3.68 41.82h33.5V89.93H40.25L38.88 74.4zm3.38 38.29h-15l2.1 23.82L60 145.14h.07v-15.8H60l-16.67-4.56-1.06-12.1z" fill="#ebebeb"/><path d="M10.84 0h7.75v7.71h7.08V0h7.74v23.36h-7.74v-7.82h-7.08v7.82h-7.75V0zm32.75 7.75h-6.81V0h21.37v7.75h-6.82v15.61h-7.74V7.75zM61.55 0h8.07l5 8.21 5-8.21h8.07v23.36h-7.78V11.78l-5.32 8.3h-.14l-5.33-8.3v11.58h-7.57zm29.93 0h7.74v15.64h10.89v7.72H91.47V0z" fill="#111"/><path d="M60.06 105.11h18.86l-1.78 19.68-17.08 4.57v15.78l31.4-8.62.23-2.56L95.29 94l.37-4.07h-35.6zm0-30.75h37l.31-3.36.69-7.69.37-4.08H60.06v15.13z" fill="#fff"/></g></g></svg>
