<svg xmlns="http://www.w3.org/2000/svg" viewBox="0 0 144.35 140.75"><defs><radialGradient id="a" cx="-963.98" cy="1141.2" r="1" gradientTransform="matrix(100.57 0 0 -97.37 96994.21 111150.78)" gradientUnits="userSpaceOnUse"><stop offset="0" stop-color="#423325" stop-opacity=".98"/><stop offset="1" stop-color="#1c0a00"/></radialGradient></defs><g data-name="Layer 2"><g data-name="Layer 1"><path d="M6 6h132.34v128.73H6z" fill="url(#a)"/><path d="M6 6h132.34v128.73H6zM0 140.75h144.35V0H0zm94.55-90.59c0-.48.18-.72.72-.72h9.45c.48 0 .72.18.72.72v47.46c0 .48-.12.72-.72.72h-9.33c-.6 0-.78-.3-.78-.78v-47.4zm-.66-13.65a6.14 6.14 0 1112.27 0c0 4-2.59 6.13-6.25 6.13-3.49 0-6.02-2.16-6.02-6.13zM66.82 70c-1.68-6.67-5.65-21.23-7.15-28.27h-.12c-1.27 7-4.45 19-7 28.27zM50.1 79.7l-4.75 18c-.12.48-.3.6-.9.6h-8.84c-.6 0-.72-.18-.6-.9l17.08-59.75a19.46 19.46 0 00.6-5c0-.42.18-.6.48-.6H65.8c.42 0 .6.12.72.6l19.13 64.9c.12.48 0 .78-.48.78h-10c-.48 0-.78-.12-.9-.54L69.35 79.7z" fill="#ff7f18"/></g></g></svg>
