<svg xmlns="http://www.w3.org/2000/svg" viewBox="0 0 141 141"><g data-name="Layer 2"><g data-name="Layer 1"><path d="M0 0h141v141H0z" fill="#f7df1e"/><path d="M56.65 122.77l8.57-5.18c1.66 2.93 3.16 5.4 6.77 5.4s5.65-1.35 5.65-6.6V80.64h10.53v35.9c0 10.88-6.39 15.84-15.72 15.84-8.43 0-13.32-4.36-15.8-9.61zm37.24-1.13l8.58-5c2.26 3.68 5.19 6.38 10.38 6.38 4.37 0 7.15-2.18 7.15-5.18 0-3.61-2.86-4.88-7.68-7l-2.63-1.12c-7.6-3.23-12.64-7.28-12.64-15.84 0-7.89 6-13.9 15.43-13.9 6.69 0 11.51 2.33 15 8.41l-8.2 5.26c-1.81-3.23-3.76-4.5-6.77-4.5s-5 2-5 4.5c0 3.15 2 4.43 6.47 6.38l2.64 1.13c8.95 3.83 14 7.73 14 16.52 0 9.46-7.45 14.64-17.45 14.64-9.78 0-16.1-4.66-19.19-10.74"/></g></g></svg>
