<svg xmlns="http://www.w3.org/2000/svg" viewBox="0 0 67.65 67.65"><defs><style>.cls-1{fill:#069;}.cls-2{fill:#fff;}</style></defs><g id="Layer_2" data-name="Layer 2"><g id="Layer_1-2" data-name="Layer 1"><path class="cls-1" d="M0,4.85A4.93,4.93,0,0,1,5,0H62.65a4.93,4.93,0,0,1,5,4.85v58a4.93,4.93,0,0,1-5,4.85H5A4.93,4.93,0,0,1,0,62.8v-58Z"/><path class="cls-2" d="M20.56,56.61V26.16H10.43V56.61ZM15.5,22c3.53,0,5.72-2.34,5.72-5.26S19,11.48,15.57,11.48s-5.73,2.27-5.73,5.26A5.24,5.24,0,0,0,15.43,22ZM26.16,56.61H36.28v-17a6.87,6.87,0,0,1,.34-2.47,5.53,5.53,0,0,1,5.19-3.71c3.66,0,5.13,2.8,5.13,6.89V56.61H57.06V39.15c0-9.35-5-13.71-11.65-13.71a10.08,10.08,0,0,0-9.19,5.13h.06V26.16H26.16c.13,2.85,0,30.45,0,30.45Z"/></g></g></svg>