<svg xmlns="http://www.w3.org/2000/svg" viewBox="0 0 212.71 59.02"><defs><style>.cls-1{fill:#6666f0}</style></defs><g id="Layer_2" data-name="Layer 2"><g id="Layer_1-2" data-name="Layer 1"><path class="cls-1" d="M114.3 26.62a23.31 23.31 0 012.51.13 6.73 6.73 0 01-3.16-5.75V1.81c0-.8 0-1.48-.85-1.48h-5.24a1.29 1.29 0 00-.51.14 1.37 1.37 0 00-.42.34 1.24 1.24 0 00-.24.47 1.18 1.18 0 000 .53v19.58a13.3 13.3 0 001.53 6.08 23.59 23.59 0 016.38-.85zm49.16 0V6.4h4.46a10 10 0 017.25 3.06 9.71 9.71 0 012.14 3.39 9.9 9.9 0 01.64 4 9.82 9.82 0 01-2.74 7.15 9.68 9.68 0 01-3.21 2.27 9.93 9.93 0 01-3.87.76 34.48 34.48 0 019.81 4 15.75 15.75 0 007.65-14 16.79 16.79 0 00-17.1-16.7h-9.94c-.77 0-2.43.7-2.43 1.48v25.51a30.15 30.15 0 016.9-.68c.29-.02-.78-.02.44-.02zm-29.16-5.23V1.81c0-.78 0-1.48-.78-1.48h-5.23a1.31 1.31 0 00-.51.15 1.33 1.33 0 00-.41.33 1.26 1.26 0 00-.25.47 1.35 1.35 0 00-.05.53v19.31a6.32 6.32 0 01-1.48 4.3 6.25 6.25 0 01-4 2.18c3.29 1 5.93 2.66 8.84 3.89 2.79-2.44 3.87-6.09 3.87-10.1zM141.59 33c3.64-.31 6.07-1.22 7.29-2.21V2.12c0-.81-.11-1.79-.91-1.79h-5.64c-.8 0-.74 1-.74 1.79zm-89.9-1.52v-4.05a1.6 1.6 0 00-.39-1.08 1.57 1.57 0 00-1-.51H38.33v-24A1.49 1.49 0 0036.92.33h-4.34a1.54 1.54 0 00-1.06.44 1.52 1.52 0 00-.48 1v27.42a23.42 23.42 0 0012.15 3.93 21 21 0 008.5-1.64zM62.62 2.12A2.27 2.27 0 0062 .91a2.24 2.24 0 00-1.26-.58H57.1a2.08 2.08 0 00-1.19.59 2.11 2.11 0 00-.57 1.2v27.07A22.16 22.16 0 0162.62 27zm136.77 51.59a22.83 22.83 0 01-23 0 25 25 0 00-25.06 0 22.84 22.84 0 01-23 0 25 25 0 00-25.06 0 20.9 20.9 0 01-11.48 3.1 21 21 0 01-11.48-3.1 23.11 23.11 0 00-12.52-3.37 23.06 23.06 0 00-12.53 3.37 20.9 20.9 0 01-11.48 3.1 21 21 0 01-11.48-3.1 23 23 0 00-12.52-3.37 23.07 23.07 0 00-12.49 3.37A22.24 22.24 0 010 56.47v2.24a23.45 23.45 0 008.33-3.06 20.86 20.86 0 0111.48-3.09 20.81 20.81 0 0111.48 3.09A23.06 23.06 0 0043.82 59a23.09 23.09 0 0012.54-3.37 20.81 20.81 0 0111.48-3.09 20.86 20.86 0 0111.48 3.09A23 23 0 0091.84 59a23.06 23.06 0 0012.53-3.37 22.83 22.83 0 0123 0 25 25 0 0025.06 0 22.83 22.83 0 0123 0 25 25 0 0025.07 0 20.81 20.81 0 0111.48-3.09h.79v-2.16h-.79a23.11 23.11 0 00-12.59 3.33z"/><path class="cls-1" d="M211.92 32.69a23 23 0 00-12.53 3.42 22.83 22.83 0 01-23 0 25 25 0 00-25.06 0 22.84 22.84 0 01-23 0 25 25 0 00-25.06 0 27.18 27.18 0 01-2.49 1.21L96 30.46a17.14 17.14 0 006.27-13.1A17.47 17.47 0 1070 26.81c8.21 1.13 9.65 5.91 19.44 6.2l3.24 6.07h-.8A20.84 20.84 0 0180.41 36a23.1 23.1 0 00-12.52-3.36A23.11 23.11 0 0055.36 36a20.84 20.84 0 01-11.48 3.1A20.84 20.84 0 0132.4 36a23.11 23.11 0 00-12.53-3.36 23 23 0 00-12.58 3.5A22 22 0 010 38.89v2.25a23.68 23.68 0 008.33-3.08A21 21 0 0119.81 35a20.9 20.9 0 0111.48 3.1 23.06 23.06 0 0012.53 3.37 23 23 0 0012.52-3.37A21 21 0 0167.82 35a20.9 20.9 0 0111.48 3.1 23.12 23.12 0 0012.54 3.37 23.06 23.06 0 0012.53-3.37 22.83 22.83 0 0123 0 25 25 0 0025.06 0 22.83 22.83 0 0123 0 25 25 0 0025.07 0 20.9 20.9 0 0111.42-3.1h.79v-2.31zm-127.17-5a10.28 10.28 0 010-20.54A10.43 10.43 0 0195 17.43a10.26 10.26 0 01-10.25 10.23z"/><path class="cls-1" d="M199.39 44.91a22.83 22.83 0 01-23 0 25 25 0 00-25.06 0 22.84 22.84 0 01-23 0 25 25 0 00-25.06 0A20.82 20.82 0 0191.84 48a20.87 20.87 0 01-11.48-3.1 23.1 23.1 0 00-12.52-3.36 23.05 23.05 0 00-12.53 3.36A20.82 20.82 0 0143.83 48a20.87 20.87 0 01-11.48-3.1 23 23 0 00-12.52-3.36 23 23 0 00-12.54 3.37A22 22 0 010 47.68v2.25a23.66 23.66 0 008.33-3.07 20.87 20.87 0 0111.48-3.1 20.9 20.9 0 0111.48 3.1 23 23 0 0012.53 3.36 22.91 22.91 0 0012.52-3.36 20.87 20.87 0 0111.48-3.1 20.9 20.9 0 0111.48 3.1 23.11 23.11 0 0012.54 3.36 23 23 0 0012.53-3.36 22.83 22.83 0 0123 0 25 25 0 0025.06 0 22.83 22.83 0 0123 0 25.06 25.06 0 0025.07 0 20.9 20.9 0 0111.48-3.1h.79v-2.17h-.79a23.1 23.1 0 00-12.59 3.32z"/></g></g></svg>
