<svg xmlns="http://www.w3.org/2000/svg" viewBox="0 0 195 70.61"><defs><style>.cls-1{fill:#6666f0;}</style></defs><g id="Layer_2" data-name="Layer 2"><g id="Layer_1-2" data-name="Layer 1"><path class="cls-1" d="M106.21,29.08a8.13,8.13,0,0,1-1-3.91v-23c0-1,0-1.77-1-1.77H97.93a1.51,1.51,0,0,0-.62.17,1.44,1.44,0,0,0-.49.39,1.4,1.4,0,0,0-.3.58,1.67,1.67,0,0,0,0,.63V25.6a16,16,0,0,0,1.83,7.26,29,29,0,0,1,7.69-1,27.1,27.1,0,0,1,3,.17A8.1,8.1,0,0,1,106.21,29.08Zm83.42-16.44a20,20,0,0,0-4.45-6.52,20.18,20.18,0,0,0-6.61-4.3A19.82,19.82,0,0,0,170.81.4H158.92C158,.4,156,1.24,156,2.17V32.69a35.3,35.3,0,0,1,8.26-.81c.34,0-.92,0,.52,0V7.66h5.34a11.93,11.93,0,0,1,4.71.94,11.94,11.94,0,0,1,7.29,11.52,11.75,11.75,0,0,1-.74,4.66,11.93,11.93,0,0,1-2.53,4,12.13,12.13,0,0,1-3.9,2.66,11.87,11.87,0,0,1-4.63.91,40.68,40.68,0,0,1,11.74,4.82,18.9,18.9,0,0,0,9.16-16.79A20.1,20.1,0,0,0,189.63,12.64ZM129,.4h-6.27a1.43,1.43,0,0,0-.61.17,1.63,1.63,0,0,0-.49.41,1.59,1.59,0,0,0-.3.56,1.67,1.67,0,0,0,0,.63V25.26A7.55,7.55,0,0,1,114.73,33c3.92,1.23,7.09,3.19,10.56,4.66,3.33-2.93,4.62-7.29,4.62-12.08V2.17C129.91,1.24,129.91.4,129,.4Zm17.27,0h-6.75c-.95,0-.88,1.17-.88,2.13V39.47c4.37-.36,7.27-1.44,8.72-2.64V2.53C147.35,1.57,147.22.4,146.26.4ZM30.61,31.53a1.8,1.8,0,0,0-1.23-.61H15.1V2.17A1.78,1.78,0,0,0,14.61,1,1.8,1.8,0,0,0,13.41.4H8.23A1.86,1.86,0,0,0,7,.92a1.89,1.89,0,0,0-.57,1.25V34.93a28,28,0,0,0,14.53,4.69,24.74,24.74,0,0,0,10.18-2V32.82A1.82,1.82,0,0,0,30.61,31.53ZM43.39,1.1A2.53,2.53,0,0,0,41.92.4H37.55a2.39,2.39,0,0,0-1.41.71,2.45,2.45,0,0,0-.69,1.42v32.4a26.17,26.17,0,0,1,8.72-2.69V2.53A2.63,2.63,0,0,0,43.39,1.1ZM194,68a27.29,27.29,0,0,1-13.74-3.71,29.89,29.89,0,0,0-30,0,27.3,27.3,0,0,1-27.48,0,29.89,29.89,0,0,0-30,0A25,25,0,0,1,79.12,68a25,25,0,0,1-13.73-3.7,27.59,27.59,0,0,0-15-4,27.55,27.55,0,0,0-15,4A25,25,0,0,1,21.69,68,24.93,24.93,0,0,1,8,64.26,27.39,27.39,0,0,0,0,61v2.73a25,25,0,0,1,6.69,2.87,27.43,27.43,0,0,0,15,4,27.52,27.52,0,0,0,15-4A25.07,25.07,0,0,1,50.4,62.87a25,25,0,0,1,13.73,3.71,27.69,27.69,0,0,0,15,4,27.46,27.46,0,0,0,15-4,27.3,27.3,0,0,1,27.48,0,30,30,0,0,0,30,0,27.3,27.3,0,0,1,27.48,0,30,30,0,0,0,15,4h1V68Z"/><path class="cls-1" d="M194,46.91a27.19,27.19,0,0,1-13.74-3.72,30,30,0,0,0-30,0,27.3,27.3,0,0,1-27.48,0,30,30,0,0,0-30,0,28.27,28.27,0,0,1-3,1.46l-5.81-8.22a20.47,20.47,0,0,0,7.5-15.66,21.19,21.19,0,0,0-2.26-9.31A20.9,20.9,0,1,0,53,32.08c9.82,1.35,11.53,7.06,23.24,7.4l3.89,7.28h-1a25,25,0,0,1-13.73-3.71,27.61,27.61,0,0,0-15-4,27.49,27.49,0,0,0-15,4,25,25,0,0,1-13.73,3.71A25,25,0,0,1,8,43.05a27.26,27.26,0,0,0-8-3.29v2.91a25,25,0,0,1,6.69,2.87,27.43,27.43,0,0,0,15,4,27.51,27.51,0,0,0,15-4,24.86,24.86,0,0,1,13.73-3.71,25,25,0,0,1,13.73,3.71,27.61,27.61,0,0,0,15,4,27.46,27.46,0,0,0,15-4,27.3,27.3,0,0,1,27.48,0,30,30,0,0,0,30,0,27.3,27.3,0,0,1,27.48,0,30,30,0,0,0,15,4h1V46.9ZM79.3,29.52a12.15,12.15,0,1,1-8.67-21A12.5,12.5,0,0,1,82.92,20.86,12.35,12.35,0,0,1,79.3,29.52Z"/><path class="cls-1" d="M195,57.43h-1a27.29,27.29,0,0,1-13.74-3.71,30,30,0,0,0-30,0,27.3,27.3,0,0,1-27.48,0,29.89,29.89,0,0,0-30,0,25,25,0,0,1-13.74,3.71,25,25,0,0,1-13.73-3.71,27.67,27.67,0,0,0-15-4,27.55,27.55,0,0,0-15,4,25,25,0,0,1-13.73,3.71A24.94,24.94,0,0,1,8,53.73a27.36,27.36,0,0,0-8-3.27v2.72a25.32,25.32,0,0,1,6.69,2.87,27.45,27.45,0,0,0,15,4,27.53,27.53,0,0,0,15-4,24.92,24.92,0,0,1,13.73-3.69,25,25,0,0,1,13.73,3.69,27.54,27.54,0,0,0,15,4,27.47,27.47,0,0,0,15-4,27.36,27.36,0,0,1,27.48,0,29.85,29.85,0,0,0,30,0,27.36,27.36,0,0,1,27.48,0,29.83,29.83,0,0,0,15,4c.33,0,.65,0,1,0Z"/></g></g></svg>