<svg width="37" height="57" viewBox="0 0 37 57" fill="none" xmlns="http://www.w3.org/2000/svg">
<path d="M10.3729 56.6758V0H6.48285V17.0674L3.89163 3.3296V0H0V56.6758H3.89163V19.0694L6.48285 30.794V56.6758H10.3729Z" fill="#111"/>
<path d="M23.5692 56.6758V0H12.9657V56.6758H16.8557V30.2987H19.6792V56.6758H23.5692ZM16.8557 26.3739V3.91841H19.6792V26.3739H16.8557Z" fill="#111"/>
<path d="M30.0778 26.3706V3.91841H32.6706V16.9674H36.5606V3.91841V3.60546V0H30.0778H26.7355H26.1877V30.2907H28.2697H30.0778H32.6706V52.7574H30.0778V39.6294V39.4374V32.8943H26.1877V39.4374V39.6294V56.6758H26.5753H30.0778H32.6706H36.4005H36.5606V30.2907V29.4018V26.3706H30.0778Z" fill="#111"/>
</svg>
