<svg xmlns="http://www.w3.org/2000/svg" viewBox="0 0 144.91 141.3"><defs><radialGradient id="a" cx="-963.72" cy="1141.5" r="1" gradientTransform="matrix(100.88 0 0 -97.68 97270.76 111538.58)" gradientUnits="userSpaceOnUse"><stop offset="0" stop-color="#34364e" stop-opacity=".98"/><stop offset="1" stop-color="#0c0824"/></radialGradient></defs><g data-name="Layer 2"><g data-name="Layer 1"><path d="M6.08 6.08h132.74v129.14H6.08z" fill="url(#a)"/><path d="M6 6h132.87v129.26H6zM0 141.3h144.91V0H0zM97.69 58c-4.77 0-6.4 2.42-6.4 4.41 0 2.17 1.09 3.68 7.49 7 9.48 4.59 12.44 9 12.44 15.46 0 9.66-7.37 14.86-17.33 14.86-5.25 0-9.78-1.09-12.38-2.6-.42-.18-.48-.48-.48-1v-8.87c0-.61.3-.79.72-.49a22.4 22.4 0 0012.14 3.57c4.77 0 6.76-2 6.76-4.71 0-2.18-1.39-4.11-7.49-7.25C84.59 74.27 81 70.11 81 63.16c0-7.79 6.1-14.25 16.66-14.25 5.19 0 8.82.79 10.81 1.69a1.34 1.34 0 01.6 1.21v8.27c0 .49-.3.79-.9.61A20.41 20.41 0 0097.69 58zm-51.92 7.16c1.39.12 2.47.12 4.89.12 7.06 0 13.7-2.48 13.7-12.08 0-7.67-4.77-11.53-12.8-11.53-2.41 0-4.71.12-5.79.18zM35 33.09c0-.42.84-.72 1.33-.72 3.86-.18 9.6-.31 15.58-.31 16.72 0 23.24 9.18 23.24 20.9 0 15.34-11.11 21.92-24.75 21.92-2.3 0-3.08-.12-4.71-.12v23.18c0 .49-.18.73-.73.73h-9.22c-.48 0-.72-.18-.72-.73V33.09z" fill="#31c5f0"/></g></g></svg>
