<svg xmlns="http://www.w3.org/2000/svg" viewBox="0 0 146.11 130.12"><defs><style>.cls-1{fill:#61dafb}</style></defs><g id="Layer_2" data-name="Layer 2"><g id="Layer_1-2" data-name="Layer 1"><path class="cls-1" d="M146.11 65.07c0-9.68-12.12-18.85-30.7-24.54 4.28-18.94 2.38-34-6-38.83a13.09 13.09 0 00-6.69-1.7v6.67a6.83 6.83 0 013.39.78c4 2.32 5.81 11.16 4.44 22.54-.33 2.8-.86 5.75-1.52 8.76a143.53 143.53 0 00-18.91-3.25 145.28 145.28 0 00-12.39-14.89c9.71-9 18.82-14 25-14V0C94.56 0 83.84 5.84 73 16 62.16 5.9 51.43.12 43.24.12v6.64c6.17 0 15.31 4.91 25 13.88A140.63 140.63 0 0056 35.5a138.3 138.3 0 00-19 3.28c-.69-3-1.19-5.87-1.55-8.64-1.4-11.38.33-20.22 4.35-22.58a6.66 6.66 0 013.42-.77V.15a13.21 13.21 0 00-6.73 1.67c-8.37 4.82-10.24 19.86-5.92 38.74C12.06 46.28 0 55.42 0 65.07s12.12 18.86 30.71 24.54c-4.29 19-2.39 34 6 38.84a13.12 13.12 0 006.7 1.67c8.19 0 18.91-5.84 29.75-16C84 124.22 94.74 130 102.93 130a13.31 13.31 0 006.73-1.67c8.37-4.82 10.24-19.86 5.92-38.75 18.47-5.68 30.53-14.86 30.53-24.51zm-38.78-19.86c-1.1 3.84-2.47 7.8-4 11.76-1.22-2.38-2.5-4.76-3.9-7.14s-2.83-4.71-4.29-7c4.23.62 8.31 1.4 12.21 2.35zM93.69 76.93c-2.32 4-4.7 7.83-7.17 11.37-4.44.39-8.94.6-13.46.6s-9-.21-13.41-.57Q55.95 83 52.45 77c-2.27-3.91-4.32-7.87-6.2-11.86 1.85-4 3.93-8 6.17-11.88s4.7-7.83 7.17-11.38c4.44-.38 8.94-.59 13.47-.59s9 .21 13.4.56q3.71 5.33 7.2 11.32c2.27 3.9 4.32 7.86 6.2 11.85-1.88 4-3.93 8-6.17 11.89zm9.62-3.87c1.61 4 3 8 4.11 11.85-3.9 1-8 1.76-12.27 2.38 1.46-2.29 2.92-4.64 4.29-7.06s2.65-4.79 3.87-7.17zm-30.2 31.77a124 124 0 01-8.27-9.53c2.68.12 5.42.21 8.19.21s5.56-.06 8.27-.21a115.4 115.4 0 01-8.19 9.53zM51 87.29c-4.23-.62-8.31-1.4-12.21-2.35 1.1-3.84 2.47-7.8 4-11.77 1.22 2.39 2.5 4.77 3.9 7.15S49.5 85 51 87.29zm22-62a123.75 123.75 0 018.28 9.53c-2.69-.11-5.43-.2-8.19-.2s-5.57.06-8.28.2A117.07 117.07 0 0173 25.31zM51 42.84c-1.46 2.29-2.92 4.64-4.29 7s-2.71 4.84-3.94 7.22c-1.61-4-3-8-4.11-11.85 3.9-.92 8-1.73 12.27-2.35zm-27 37.3C13.43 75.65 6.61 69.75 6.61 65.07S13.43 54.47 24 50c2.57-1.1 5.37-2.08 8.25-3a143.55 143.55 0 006.71 18.13 141.62 141.62 0 00-6.62 18.05c-2.94-.92-5.74-1.93-8.34-3zm16 42.56c-4-2.32-5.81-11.17-4.44-22.54.33-2.8.86-5.75 1.52-8.76A145.2 145.2 0 0056 94.65a145.28 145.28 0 0012.39 14.89c-9.71 9-18.82 14-25 14a7 7 0 01-3.39-.84zm70.64-22.7c1.4 11.37-.33 20.22-4.35 22.57a6.56 6.56 0 01-3.42.78c-6.17 0-15.31-4.92-25-13.88a140.63 140.63 0 0012.3-14.86 139.84 139.84 0 0018.94-3.28 82.84 82.84 0 011.53 8.67zm11.47-19.87c-2.56 1.11-5.36 2.09-8.25 3a143.55 143.55 0 00-6.7-18.13 141.4 141.4 0 006.61-18c3 .92 5.75 1.93 8.37 3 10.54 4.5 17.36 10.4 17.36 15.07s-6.85 10.61-17.39 15.07z"/><circle class="cls-1" cx="73.03" cy="65.07" r="13.61"/></g></g></svg>
