<svg xmlns="http://www.w3.org/2000/svg" viewBox="0 0 205.53 58.7"><g data-name="Layer 2"><g data-name="Layer 1"><path d="M23.27 1.86c.41 0 .62.2 1 .41-2.47 1-4.94 3.71-6.18 9.47L13.59 13C15 8.86 17.92 1.86 23.27 1.86zm2.27 2.06a14.36 14.36 0 01.82 4.94v.41l-6 1.65c1.26-4.33 3.32-6.18 5.18-7zm5.35 3.7l-2.68.83v-.62a14.21 14.21 0 00-.61-4.53c1.4.41 2.67 2.26 3.29 4.32zm13.39 3.3a.44.44 0 00-.41-.41c-.42 0-4.74-.42-4.74-.42S36 7 35.63 6.8c-.41-.41-1-.21-1.24-.21 0 0-.62.21-1.65.62-1-2.88-2.88-5.56-6-5.56h-.2A3.67 3.67 0 0023.48 0c-7.42-.2-10.92 9.06-12.15 13.8-1.65.41-3.3 1-5.15 1.65-1.65.41-1.65.62-1.86 2.06C4.12 18.54 0 51.08 0 51.08l32.74 6.18 17.72-3.92s-6.18-42.01-6.18-42.42z" fill="#8db849"/><path d="M43.66 10.51c-.21 0-4.53-.42-4.53-.42S36 7 35.63 6.8c-.21-.21-.21-.21-.41-.21l-2.48 50.67 17.72-3.92s-6.18-42-6.18-42.42c0-.21-.41-.41-.62-.41" fill="#5a863e"/><path d="M26.77 20.39L24.51 27a9.81 9.81 0 00-4.33-1c-3.5 0-3.7 2.06-3.7 2.68 0 2.88 7.82 4.12 7.82 11.12 0 5.56-3.5 9.06-8.24 9.06a11.31 11.31 0 01-8.44-3.5l1.44-4.94s2.88 2.47 5.36 2.47a2.15 2.15 0 002.26-2.27c0-3.91-6.38-4.12-6.38-10.5 0-5.35 3.91-10.5 11.53-10.5 3.5-.21 4.94.82 4.94.82" fill="#fffffe"/><path d="M71.26 32.54c-1.86-1-2.68-1.85-2.68-2.88 0-1.44 1.23-2.27 3.29-2.27a11 11 0 014.33 1l1.65-4.94s-1.45-1.23-5.77-1.23c-6.18 0-10.3 3.5-10.3 8.44 0 2.88 2.06 4.94 4.53 6.38 2.06 1.24 2.89 2.06 2.89 3.3s-1 2.47-3.09 2.47a14.91 14.91 0 01-5.77-1.44l-1.65 4.94a13 13 0 006.8 1.69c6.18 0 10.71-3.09 10.71-8.65 0-3.09-2.27-5.36-4.94-6.8M96.17 22a9.35 9.35 0 00-7.41 3.71l2.68-14h-7l-6.8 35.63h7l2.27-12.15c.82-4.53 3.29-7.41 5.56-7.41 1.65 0 2.26 1 2.26 2.67a16.05 16.05 0 01-.2 3.09l-2.68 14h7l2.68-14.42a38.24 38.24 0 00.41-4.53c0-4.12-2.06-6.59-5.77-6.59m17.92 20.39c-2.47 0-3.29-2.06-3.29-4.53 0-3.92 2.06-10.51 5.76-10.51 2.47 0 3.3 2.06 3.3 4.12 0 4.53-2.06 10.96-5.77 10.96zm3.5-20.39c-8.44 0-14 7.62-14 16.06 0 5.36 3.29 9.68 9.68 9.68 8.24 0 13.8-7.41 13.8-16.06 0-4.9-2.89-9.68-9.48-9.68zm20.6 20.59a4.27 4.27 0 01-2.89-1l1.24-6.59c.82-4.32 3.09-7.2 5.56-7.2 2.06 0 2.88 2.05 2.88 3.91-.2 4.54-2.88 10.92-6.79 10.92zM145 22c-4.73 0-7.41 4.12-7.41 4.12l.41-3.71h-6.2a83.27 83.27 0 01-1.44 9.27l-4.94 25.54h7L134.27 47h.21a8.92 8.92 0 004.12.82c8.24 0 13.59-8.44 13.59-16.89 0-4.57-2.06-8.93-7.19-8.93zm17.1-9.89a4 4 0 00-3.92 4.12 3.19 3.19 0 003.3 3.5 3.89 3.89 0 004.12-4.12 3.35 3.35 0 00-3.5-3.5m-9.7 35.26h7l4.74-24.71h-7zm29.45-24.71h-4.95l.21-1.24c.41-2.47 1.85-4.53 4.12-4.53a6.82 6.82 0 012.26.41l1.45-5.56a9 9 0 00-3.71-.62 10.07 10.07 0 00-6.8 2.27c-2.47 2.06-3.5 4.94-4.12 7.83l-.2 1.23h-3.3l-1 5.36h3.3l-3.71 19.56h7l3.71-19.56h4.74zm16.68 0s-4.33 10.91-6.39 16.88c-.2-1.85-1.64-16.88-1.64-16.88h-7.42l4.12 22.65a2.6 2.6 0 01-.21 1.24 11.81 11.81 0 01-3.7 4.11 14.48 14.48 0 01-3.92 2.06l1.86 6A14.94 14.94 0 00188 55c3.09-2.88 6.18-7.62 9.07-13.8l8.44-18.33z" fill="#1a1919"/></g></g></svg>
