<svg xmlns="http://www.w3.org/2000/svg" viewBox="0 0 123.53 140.48"><defs><style>.cls-1{fill:#95bf46;}.cls-2{fill:#5e8e3e;}.cls-3{fill:#fff;}</style></defs><g id="Layer_2" data-name="Layer 2"><g id="Layer_1-2" data-name="Layer 1"><path class="cls-1" d="M108.19,27.35A1.35,1.35,0,0,0,107,26.21l-11.31-.84L87.34,17.1c-.83-.82-2.43-.57-3.06-.39L80.09,18C77.58,10.8,73.16,4.17,65.38,4.17l-.65,0c-2.22-2.93-5-4.2-7.32-4.2C39.29,0,30.63,22.65,27.92,34.16L15.24,38.09c-3.93,1.23-4.05,1.36-4.57,5.06C10.28,46,0,125.47,0,125.47l80.12,15,43.41-9.39s-15.24-103-15.34-103.74Zm-32.53-8-6.78,2.09V20A33.15,33.15,0,0,0,67.26,9.07C71.27,9.57,73.94,14.13,75.66,19.38ZM62.29,10c1.12,2.8,1.84,6.8,1.84,12.21v.78l-14,4.34c2.7-10.4,7.75-15.43,12.17-17.33ZM56.91,4.86a4.06,4.06,0,0,1,2.32.78c-5.8,2.74-12,9.62-14.66,23.36L33.51,32.43C36.59,22,43.9,4.86,56.91,4.86Z"/><path class="cls-2" d="M107,26.21l-11.31-.84L87.34,17.1a2.07,2.07,0,0,0-1.16-.53L80.12,140.48l43.41-9.39s-15.24-103-15.34-103.74A1.35,1.35,0,0,0,107,26.21"/><path class="cls-3" d="M65.38,50.2,60,66.12a24.65,24.65,0,0,0-10.44-2.5c-8.43,0-8.85,5.29-8.85,6.62,0,7.27,18.95,10.06,18.95,27.09,0,13.4-8.49,22-20,22C26,119.36,19,110.8,19,110.8l3.68-12.16s7.23,6.2,13.33,6.2a5.38,5.38,0,0,0,5.61-5.43C41.57,89.93,26,89.5,26,73.92,26,60.8,35.43,48.1,54.44,48.1c7.32,0,10.94,2.1,10.94,2.1"/></g></g></svg>