<svg xmlns="http://www.w3.org/2000/svg" viewBox="0 0 193 115.69"><defs><linearGradient id="a" x1="-546.93" y1="779.62" x2="-380.32" y2="683.46" gradientTransform="matrix(1 0 0 -1 558 788.16)" gradientUnits="userSpaceOnUse"><stop offset="0" stop-color="#2298bd"/><stop offset="1" stop-color="#0ed7b5"/></linearGradient></defs><g data-name="Layer 2"><path d="M96.5 0Q57.9 0 48.25 38.56 62.72 19.29 82 24.1c7.34 1.84 12.58 7.16 18.39 13 9.46 9.59 20.41 20.7 44.33 20.7q38.59 0 48.25-38.57-14.48 19.29-33.77 14.46c-7.35-1.83-12.59-7.15-18.4-13C131.37 11.1 120.42 0 96.5 0zM48.25 57.85Q9.66 57.85 0 96.41 14.48 77.12 33.78 82c7.34 1.83 12.58 7.15 18.39 13 9.46 9.6 20.41 20.7 44.33 20.7q38.6 0 48.25-38.56Q130.27 96.41 111 91.59c-7.34-1.83-12.58-7.16-18.39-13C83.12 69 72.17 57.85 48.25 57.85z" fill="url(#a)" data-name="Layer 1"/></g></svg>
